<?xml version="1.0" encoding="UTF-8"?>
<svg id="b" data-name="kugeln" xmlns="http://www.w3.org/2000/svg" viewBox="0 0 630.336 305.912">
  <path d="M189.992,65.566c15.065-12.092,29.241-20.2,44.683-27.527,15.498-7.241,32.429-13.673,54.618-19.672,6.016-1.59,15.084-3.86,26.46-6.015,5.692-1.054,11.952-2.114,18.685-3.044,6.736-.911,13.937-1.729,21.496-2.362,15.12-1.224,31.672-1.712,48.663-1.039,16.988.668,34.415,2.454,51.223,5.472,16.81,2.993,32.998,7.156,47.579,12.085,14.585,4.927,27.548,10.604,38.161,16.127,5.317,2.746,10.036,5.476,14.129,7.991,2.06,1.238,3.927,2.48,5.67,3.593,1.715,1.155,3.294,2.203,4.689,3.187,2.799,1.958,4.926,3.566,6.377,4.656,1.429,1.116,2.186,1.707,2.186,1.707,0,0,.765.582,2.168,1.728.697.578,1.559,1.292,2.574,2.133.995.864,2.14,1.858,3.426,2.974,5.052,4.543,12.136,11.352,19.273,20.788,3.573,4.706,7.093,10.101,10.265,16.141.826,1.494,1.533,3.073,2.312,4.645.695,1.608,1.471,3.211,2.104,4.894,1.373,3.326,2.524,6.831,3.545,10.446,1.037,3.613,1.799,7.377,2.388,11.226.6,3.852.917,7.798,1.004,11.82.222,8.047-.609,16.311-2.372,24.478-3.589,16.346-11.317,32.094-21.408,45.488-10.045,13.469-22.184,24.726-34.229,33.761-12.06,9.059-24.022,15.981-34.324,21.176-10.314,5.194-18.952,8.751-24.745,11-5.357,2.064-10.479,3.878-15.4,5.525-4.936,1.598-9.654,3.078-14.242,4.352-9.159,2.607-17.727,4.608-26.117,6.308-8.394,1.683-16.621,3.031-25.158,4.092-8.537,1.057-17.387,1.83-27.031,2.215,19.281-.785,35.455-2.235,52.447-4.86,8.492-1.329,17.191-2.962,26.521-5.217,4.671-1.106,9.486-2.411,14.523-3.862,5.024-1.495,10.259-3.171,15.735-5.123,5.923-2.124,14.765-5.511,25.367-10.562,10.593-5.047,22.929-11.856,35.463-20.921,12.513-9.047,25.224-20.446,35.876-34.335,2.65-3.474,5.177-7.088,7.544-10.833,2.339-3.762,4.516-7.651,6.485-11.654,3.947-8.001,6.977-16.494,8.98-25.137,1.956-8.652,2.898-17.451,2.725-26.02-.06-4.283-.378-8.537-.999-12.665-.609-4.131-1.409-8.172-2.496-12.047-1.07-3.878-2.294-7.632-3.744-11.188-.673-1.8-1.489-3.512-2.226-5.229-.821-1.677-1.572-3.362-2.442-4.953-3.344-6.438-7.073-12.148-10.824-17.119-7.5-9.969-14.915-17.068-20.175-21.81-1.339-1.163-2.519-2.214-3.567-3.099-1.056-.874-1.953-1.616-2.679-2.217-1.46-1.19-2.255-1.793-2.255-1.793,0,0-.786-.614-2.271-1.772-1.505-1.13-3.713-2.798-6.612-4.824-5.788-4.058-14.352-9.552-25.294-15.206-10.936-5.652-24.255-11.43-39.199-16.383-14.938-4.964-31.486-9.084-48.627-11.979-17.141-2.91-34.873-4.534-52.122-4.976-17.253-.457-34.016.308-49.306,1.816-7.644.779-14.919,1.739-21.716,2.8-6.796,1.071-13.105,2.283-18.837,3.472-11.457,2.43-20.565,4.946-26.6,6.707-22.264,6.63-39.038,13.897-54.288,21.831-15.216,8.005-29.009,16.705-44.047,28.807Z" fill="#ff9035"/>
  <rect x="405.673" y="146.657" width="158.884" height="6.234" transform="translate(130.739 513.348) rotate(-62.892)" fill="#ff7f18"/>
  <rect x="506.978" y="140.208" width="6.234" height="74.494" transform="translate(-6.659 334.464) rotate(-36.083)" fill="#ff7f18"/>
  <rect x="534.081" y="76.899" width="6.234" height="63.021" transform="translate(39.208 337.19) rotate(-36.084)" fill="#ff7f18"/>
  <path d="M539.041,85.811c-1.385,9.862-11.642,16.575-22.912,14.991-11.268-1.583-19.277-10.862-17.89-20.725,1.385-9.862,11.643-16.574,22.911-14.99,11.27,1.584,19.279,10.863,17.892,20.725Z" fill="#ff7f18"/>
  <path d="M512.641,150.794c-1.664,11.834-13.971,19.889-27.495,17.988-13.522-1.9-23.132-13.034-21.469-24.869,1.662-11.835,13.971-19.889,27.493-17.988,13.523,1.899,23.133,13.034,21.47,24.869Z" fill="#ff7f18"/>
  <path d="M477.481,224.505c-1.941,13.807-16.301,23.204-32.077,20.986-15.775-2.216-26.989-15.207-25.048-29.014,1.94-13.807,16.3-23.203,32.077-20.987,15.776,2.218,26.988,15.207,25.048,29.015Z" fill="#ff7f18"/>
  <path d="M578.198,137.029c-1.525,10.849-12.808,18.232-25.202,16.49-12.395-1.743-21.205-11.948-19.68-22.797,1.524-10.848,12.807-18.232,25.201-16.49,12.397,1.742,21.206,11.948,19.681,22.797Z" fill="#ff7f18"/>
  <path d="M559.666,211.283c-1.801,12.822-15.135,21.548-29.786,19.489-14.648-2.06-25.061-14.122-23.258-26.943,1.802-12.82,15.136-21.546,29.785-19.487,14.649,2.059,25.061,14.121,23.259,26.942Z" fill="#ff7f18"/>
  <g>
    <path d="M81.21,152.506c-10.489,7.918-24.723,11.876-42.703,11.876H0v-94.733h44.201c17.68,0,31.165,4.286,40.455,12.855,8.99,8.292,13.485,19.841,13.485,34.652,0,15.184-5.645,26.967-16.931,35.35ZM74.317,91.027c-6.593-6.148-16.683-9.222-30.266-9.222H14.384v70.421h24.573c14.384,0,25.446-2.955,33.188-8.872,7.74-5.914,11.612-14.647,11.612-26.198s-3.147-20.26-9.44-26.129Z" fill="#ff7f18"/>
    <path d="M179.065,164.382l-14.534-27.945h-50.044l-14.833,27.945h-16.182l50.943-94.733h11.237l49.145,94.733h-15.732ZM139.958,89.35l-18.879,34.931h37.159l-18.28-34.931Z" fill="#ff7f18"/>
    <path d="M281.204,164.382l-14.534-27.945h-50.044l-14.833,27.945h-16.182l50.943-94.733h11.237l49.145,94.733h-15.732ZM242.097,89.35l-18.879,34.931h37.159l-18.28-34.931Z" fill="#ff7f18"/>
    <path d="M334.992,165.361c-13.586,0-24.673-2.142-33.263-6.427-10.989-5.589-16.481-14.344-16.481-26.269v-6.148h14.534v5.729c0,13.972,11.785,20.959,35.361,20.959,8.59,0,15.583-1.118,20.977-3.354,6.391-2.514,9.59-6.287,9.59-11.317,0-3.633-1-6.288-2.997-7.964-1.999-1.677-5.544-3.166-10.639-4.471-2.997-.744-10.038-2.142-21.126-4.192-13.087-2.421-22.025-4.703-26.82-6.847-10.289-4.563-15.433-11.457-15.433-20.679,0-17.138,14.482-25.709,43.451-25.709,30.166,0,45.449,11.505,45.849,34.511h-14.084c-.699-9.872-3.797-16.114-9.289-18.723-4.897-2.421-12.388-3.633-22.476-3.633-19.38,0-29.068,4.519-29.068,13.553,0,4.286,2.297,7.499,6.893,9.641,3.795,1.677,10.437,3.262,19.928,4.75,18.579,2.888,31.065,6.008,37.458,9.362,8.489,4.471,12.736,11.366,12.736,20.679,0,9.41-5.345,16.441-16.033,21.098-8.09,3.633-17.781,5.45-29.067,5.45Z" fill="#ff7f18"/>
    <path d="M384.002,164.382v-94.733h14.385v94.733h-14.385Z" fill="#ff7f18"/>
  </g>
  <g>
    <path d="M2.23,169.984c.345,0,.741-.012,1.186-.038.445-.025.877-.025,1.298,0,.42.026.803.09,1.149.191.345.103.593.255.741.458.297.357.457.854.482,1.491.024.638.037,1.287.037,1.948v47.962c0,.739-.124,1.312-.371,1.719-.198.256-.433.409-.704.458-.272.051-.606.128-1.001.23h-1.409c-.693,0-1.335-.026-1.928-.077s-1.014-.306-1.26-.764c-.198-.305-.297-.726-.297-1.261v-47.961c0-.56-.013-1.185-.037-1.873-.025-.688.086-1.235.334-1.643.197-.357.593-.612,1.186-.764.098-.05.197-.063.297-.038.098.026.197.013.297-.038Z" fill="#404040"/>
    <path d="M35.968,184.124c3.114-.102,5.61.331,7.489,1.299,1.878.968,3.385,2.42,4.523,4.356.297.51.531,1.058.704,1.643.173.587.334,1.185.482,1.797.247.968.395,2.013.445,3.134.049,1.121.074,2.267.074,3.439v20.102c0,.867-.013,1.733-.037,2.599-.025.867-.359,1.427-1.001,1.681-.248.103-.507.165-.778.191-.272.025-.556.038-.853.038-.643,0-1.261-.013-1.854-.038-.593-.026-1.014-.241-1.261-.65-.248-.356-.371-.815-.371-1.376v-20.714c0-1.375-.026-2.738-.074-4.089-.05-1.35-.272-2.509-.667-3.478-.396-1.018-.99-1.846-1.78-2.484-.791-.637-1.705-1.133-2.744-1.491-.297-.101-.606-.164-.927-.19-.322-.025-.63-.089-.927-.191-.248-.05-.631-.063-1.149-.038-.519.026-.878.064-1.075.115-.198.103-.371.141-.519.115-.148-.025-.322-.012-.519.038-.643.152-1.249.318-1.817.497-.569.179-1.101.42-1.594.726-.198.103-.371.204-.519.305-.148.103-.322.204-.519.306-1.731,1.274-2.991,3.185-3.782,5.732-.148.408-.248.829-.297,1.261-.05.433-.124.854-.223,1.261-.1.256-.124.497-.074.726.049.229.024.446-.074.65v1.605c-.05.153-.062.332-.037.535.024.204.037.434.037.688v18.077c0,.586-.124,1.058-.371,1.414-.248.409-.68.624-1.298.65-.619.025-1.249.038-1.891.038-.396,0-.767-.026-1.112-.077-.346-.05-.643-.178-.89-.382-.396-.255-.593-.738-.593-1.452v-35.618c0-.458.098-.814.297-1.07.148-.305.395-.509.741-.611.197-.05.482-.102.853-.153.371-.05.753-.077,1.149-.077s.778.027,1.149.077c.371.051.63.128.778.23.544.357.79.803.741,1.338-.05.535.024,1.134.223,1.796.098.306.297.561.593.764.593.051,1.075-.178,1.446-.688.371-.509.753-.918,1.149-1.223.692-.509,1.396-.98,2.113-1.414.716-.432,1.544-.803,2.484-1.108.395-.153.827-.255,1.298-.306.469-.05.927-.126,1.372-.229.247-.05.494-.077.741-.077h.742Z" fill="#404040"/>
    <path d="M63.626,172.965c.741,0,1.483.013,2.224.038.741.026,1.261.243,1.557.65.247.306.382.726.408,1.261.024.535.037,1.084.037,1.644v4.433c0,.408-.013.829-.037,1.261-.026.433.011.802.111,1.108.197.714.642,1.172,1.335,1.376.247.051.482.077.704.077h.704c.544,0,1.211-.012,2.002-.038.79-.025,1.359.038,1.706.19.445.306.741.611.89.918.099.204.148.433.148.688v.764c0,.561-.025,1.083-.074,1.566-.05.485-.223.854-.519,1.109s-.704.395-1.223.42c-.519.026-1.064.026-1.632,0-.569-.025-1.125-.038-1.668-.038s-1.014.077-1.409.23c-.347.152-.593.408-.741.764-.148.357-.248.778-.297,1.261-.05.485-.063.994-.037,1.529.024.535.037,1.058.037,1.567v15.133c0,1.121-.013,2.307-.037,3.554-.026,1.25.185,2.205.63,2.867.247.409.568.688.964.841.395.152.864.28,1.409.382.148.051.308.064.482.038.173-.025.334-.012.482.038h.964c.494,0,.951.038,1.372.115.42.077.729.267.927.573.098.153.185.42.259.803.074.382.123.778.148,1.185.024.408.012.803-.037,1.185-.05.382-.148.676-.297.879-.198.357-.569.611-1.112.764-.396.103-.841.141-1.335.115-.494-.025-.939-.038-1.335-.038-.297,0-.593.013-.89.038-.297.026-.569.013-.816-.038h-.89c-.248-.05-.482-.088-.704-.115-.222-.024-.457-.038-.704-.038-.989-.254-1.842-.535-2.558-.84-.718-.306-1.323-.841-1.817-1.606-.693-1.018-1.088-2.305-1.186-3.86-.1-1.553-.148-3.221-.148-5.006v-20.026c-.148-.661-.285-1.146-.408-1.452-.124-.306-.482-.56-1.075-.764-.198-.05-.397-.05-.594,0-.198.051-.396.026-.593-.077h-1.186c-.643,0-1.175-.063-1.594-.191-.421-.126-.704-.42-.853-.878-.1-.204-.161-.432-.185-.688-.026-.255-.037-.509-.037-.764,0-.713.049-1.312.148-1.796.098-.484.395-.853.89-1.109.543-.203,1.248-.254,2.113-.152.865.103,1.594.051,2.188-.153.445-.255.79-.611,1.038-1.07.098-.306.148-.688.148-1.147v-7.299c0-.432.049-.803.148-1.109.197-.407.568-.738,1.112-.993.148,0,.284-.012.407-.038.123-.025.234-.038.334-.038Z" fill="#404040"/>
    <path d="M115.679,203.003c.099.511.111,1.084.037,1.72-.074.638-.235,1.083-.482,1.338-.248.204-.606.344-1.075.42-.471.077-1.001.115-1.594.115s-1.187-.012-1.78-.038c-.593-.025-1.112-.038-1.557-.038h-18.983c-.396,0-.791.013-1.186.038-.396.026-.717.115-.964.267-.198.103-.396.306-.593.611-.1.153-.198.371-.297.65-.1.281-.1.549,0,.803.049.256.074.485.074.688,0,.204.024.409.074.611.099.409.197.829.297,1.261.099.434.247.854.445,1.261,1.137,2.752,3.015,4.714,5.635,5.885.297.153.618.281.964.382.345.103.692.204,1.038.306.148.051.395.077.741.077.692.204,1.606.305,2.744.305s2.051-.101,2.744-.305c.692-.204,1.322-.421,1.891-.65.568-.23,1.1-.522,1.594-.879.544-.356,1.013-.776,1.409-1.261.395-.484.741-1.005,1.038-1.566.297-.509.556-1.045.779-1.606.222-.56.604-.967,1.149-1.223.197-.102.519-.178.964-.23.445-.05.89-.063,1.335-.038.445.027.864.065,1.26.115.395.051.668.153.816.306.494.357.618.944.371,1.758-.397,1.376-.915,2.599-1.557,3.669-.99,1.632-2.113,2.969-3.374,4.013-1.26,1.045-2.854,1.899-4.783,2.56-.494.203-.989.344-1.483.42-.495.077-1.014.165-1.557.268-.248.05-.482.077-.704.077s-.457.025-.704.077h-.742c-.248.05-.532.077-.853.077s-.581-.027-.778-.077h-.668c-.248-.051-.47-.077-.667-.077-.198,0-.396-.026-.593-.077-.248-.051-.519-.09-.816-.115-.297-.026-.569-.064-.816-.115-.445-.103-.89-.217-1.335-.344-.445-.127-.865-.268-1.26-.421-.198-.101-.371-.164-.519-.19-.148-.025-.322-.089-.519-.191-.741-.356-1.533-.79-2.373-1.299-1.434-.967-2.658-2.152-3.671-3.554-1.014-1.401-1.866-2.968-2.558-4.701-.248-.56-.434-1.146-.556-1.758-.124-.611-.285-1.223-.482-1.834-.05-.204-.074-.383-.074-.536,0-.152-.026-.356-.074-.611-.1-.407-.174-.84-.223-1.299-.05-.458-.124-.917-.222-1.375v-1.071c-.05-.203-.087-.497-.111-.878-.026-.383-.013-.7.037-.956v-.841c.098-.254.136-.522.111-.802-.026-.28-.013-.547.037-.803.197-.815.358-1.63.482-2.446.123-.815.334-1.579.631-2.293.247-.56.482-1.133.704-1.719.222-.585.482-1.158.778-1.719,1.087-1.783,2.323-3.325,3.708-4.624,1.383-1.299,3.089-2.381,5.116-3.248.593-.255,1.198-.445,1.817-.573.618-.127,1.272-.268,1.965-.42.247-.05.469-.089.668-.115.197-.025.419-.038.667-.038.099-.05.223-.05.371,0,.148.051.271.026.371-.077,2.076-.05,3.88.166,5.413.65,1.532.484,2.916,1.134,4.153,1.949.247.103.445.243.593.42.148.179.321.319.519.42.395.306.803.664,1.224,1.071.419.408.778.816,1.075,1.223.79,1.07,1.458,2.09,2.002,3.057.345.562.618,1.173.816,1.834.197.663.419,1.325.668,1.987.247.663.432,1.351.556,2.064.123.714.284,1.427.482,2.14.049.357.086.714.111,1.07.024.357.062.714.111,1.07ZM108.486,200.404c.148-.203.271-.471.371-.802.098-.331.098-.675,0-1.032-.297-1.12-.717-2.165-1.261-3.134-.693-1.172-1.459-2.165-2.299-2.981-.841-.815-1.928-1.503-3.262-2.064-.347-.102-.693-.191-1.038-.268-.347-.076-.718-.164-1.112-.267-.396-.102-.816-.153-1.261-.153h-1.261c-.148.103-.322.141-.519.115-.198-.025-.371-.012-.519.038-.396.103-.778.191-1.149.267-.371.077-.73.166-1.075.268-1.434.611-2.584,1.376-3.448,2.293-.865.918-1.644,2.064-2.336,3.44-.148.256-.297.573-.445.956-.148.382-.272.802-.371,1.261-.1.458-.124.891-.074,1.299.049.408.222.714.519.917.395.306,1.075.447,2.039.42.964-.024,1.791-.037,2.484-.037h11.271c.741,0,1.631.013,2.669.037,1.038.027,1.73-.164,2.076-.573Z" fill="#404040"/>
    <path d="M140.147,183.971c1.137,0,1.779.294,1.928.879.148.586.223,1.44.223,2.56v1.452c0,.459-.124.841-.371,1.147-.297.408-.717.624-1.26.65-.545.026-1.088.114-1.632.267-.693.153-1.347.306-1.965.458-.619.153-1.199.357-1.743.611-1.435.664-2.595,1.567-3.485,2.714-.89,1.146-1.657,2.46-2.299,3.936-.198.561-.347,1.135-.445,1.719-.1.587-.223,1.185-.371,1.797-.05.255-.063.51-.037.764.024.256.011.511-.037.764-.148.611-.21,1.312-.185,2.102.024.791.037,1.542.037,2.254v11.16c0,.611-.025,1.198-.074,1.758-.05.562-.063,1.045-.037,1.452.024.409-.087.764-.334,1.07-.248.357-.63.562-1.149.611-.519.051-1.075.077-1.668.077h-1.335c-.248-.101-.482-.19-.704-.267-.223-.077-.384-.191-.482-.344-.248-.356-.383-.803-.407-1.338-.026-.535-.037-1.082-.037-1.643v-32.331c0-.56.012-1.082.037-1.566.024-.484.16-.905.407-1.261.148-.204.408-.356.779-.459.371-.101.778-.164,1.223-.19.445-.025.89-.012,1.335.038.445.051.79.128,1.038.229.395.153.654.447.778.879.123.433.185.892.185,1.376v1.528c0,.536.099,1.007.297,1.414.049.103.099.179.148.23.049.051.123.128.223.229.544,0,.988-.241,1.335-.725.345-.484.642-.879.89-1.185l.445-.458c.445-.56,1.063-1.146,1.854-1.758.79-.611,1.532-1.07,2.225-1.376.445-.254.914-.445,1.409-.573.494-.127,1.013-.268,1.557-.42.297-.05.593-.089.89-.115.297-.025.568-.063.816-.115Z" fill="#404040"/>
    <path d="M165.062,184.124c3.114-.102,5.61.331,7.489,1.299,1.878.968,3.385,2.42,4.523,4.356.297.51.531,1.058.704,1.643.173.587.334,1.185.482,1.797.247.968.395,2.013.445,3.134.049,1.121.074,2.267.074,3.439v20.102c0,.867-.013,1.733-.037,2.599-.025.867-.359,1.427-1.001,1.681-.248.103-.507.165-.778.191-.272.025-.556.038-.853.038-.643,0-1.261-.013-1.854-.038-.593-.026-1.014-.241-1.261-.65-.248-.356-.371-.815-.371-1.376v-20.714c0-1.375-.026-2.738-.074-4.089-.05-1.35-.272-2.509-.667-3.478-.396-1.018-.99-1.846-1.78-2.484-.791-.637-1.705-1.133-2.744-1.491-.297-.101-.606-.164-.927-.19-.322-.025-.63-.089-.927-.191-.248-.05-.631-.063-1.149-.038-.519.026-.878.064-1.075.115-.198.103-.371.141-.519.115-.148-.025-.322-.012-.519.038-.643.152-1.249.318-1.817.497-.569.179-1.101.42-1.594.726-.198.103-.371.204-.519.305-.148.103-.322.204-.519.306-1.731,1.274-2.991,3.185-3.782,5.732-.148.408-.248.829-.297,1.261-.05.433-.124.854-.223,1.261-.1.256-.124.497-.074.726.049.229.024.446-.074.65v1.605c-.05.153-.062.332-.037.535.024.204.037.434.037.688v18.077c0,.586-.124,1.058-.371,1.414-.248.409-.68.624-1.298.65-.619.025-1.249.038-1.891.038-.396,0-.767-.026-1.112-.077-.346-.05-.643-.178-.89-.382-.396-.255-.593-.738-.593-1.452v-35.618c0-.458.098-.814.297-1.07.148-.305.395-.509.741-.611.197-.05.482-.102.853-.153.371-.05.753-.077,1.149-.077s.778.027,1.149.077c.371.051.63.128.778.23.544.357.79.803.741,1.338-.05.535.024,1.134.223,1.796.098.306.297.561.593.764.593.051,1.075-.178,1.446-.688.371-.509.753-.918,1.149-1.223.692-.509,1.396-.98,2.113-1.414.716-.432,1.544-.803,2.484-1.108.395-.153.827-.255,1.298-.306.469-.05.927-.126,1.372-.229.247-.05.494-.077.741-.077h.742Z" fill="#404040"/>
    <path d="M222.083,221.424c.148.815.074,1.49-.223,2.025-.297.536-.693.93-1.186,1.185-.248.101-.507.152-.778.152s-.556.05-.853.153c-1.088.255-2.163.191-3.226-.191-1.063-.382-1.792-.852-2.187-1.413-.248-.357-.47-.777-.667-1.261-.198-.484-.445-.879-.741-1.185-.1-.101-.211-.203-.334-.305-.124-.102-.285-.127-.482-.077-.544.153-1.051.433-1.52.841-.47.408-.927.764-1.372,1.07-.643.409-1.335.778-2.076,1.108-.742.332-1.533.624-2.373.879-.494.153-1.026.254-1.594.305-.569.05-1.125.127-1.668.23-.248.05-.458.077-.631.077h-.556c-.544.102-1.063.102-1.557,0h-.668c-.248-.051-.495-.077-.741-.077-.248,0-.471-.051-.668-.153-.198-.051-.359-.064-.482-.038-.124.025-.26.012-.408-.038-.396-.103-.791-.19-1.186-.267-.396-.077-.767-.191-1.112-.344-1.483-.661-2.682-1.413-3.596-2.254-.915-.841-1.668-2.026-2.261-3.555-.445-1.12-.668-2.471-.668-4.05v-1.606c.049-.254.086-.522.111-.802.024-.28.061-.574.111-.879.197-.56.395-1.12.593-1.681.197-.561.445-1.071.741-1.529.89-1.478,2.1-2.573,3.633-3.287,1.532-.713,3.213-1.35,5.042-1.911.691-.203,1.409-.356,2.15-.458.741-.102,1.483-.23,2.224-.383.345-.101.679-.152,1.001-.152s.679-.05,1.075-.153c.345-.102.692-.165,1.038-.191.345-.025.716-.089,1.112-.191,1.235-.305,2.397-.573,3.485-.802,1.087-.23,1.953-.803,2.595-1.72.297-.407.544-.929.742-1.566.197-.637.197-1.338,0-2.102-.297-1.223-.73-2.19-1.298-2.904-.569-.713-1.372-1.273-2.41-1.682-.593-.254-1.298-.432-2.113-.535-.815-.102-1.668-.153-2.558-.153s-1.756.051-2.595.153c-.841.103-1.557.256-2.15.458-.841.306-1.657.739-2.447,1.299-.396.306-.754.701-1.075,1.185-.322.485-.606,1.007-.853,1.567-.148.409-.285.841-.407,1.299-.124.458-.359.816-.704,1.07-.198.153-.532.268-1.001.344-.471.077-.952.115-1.446.115s-.977-.038-1.446-.115c-.471-.077-.804-.191-1.001-.344-.198-.152-.347-.407-.445-.764-.1-.356-.1-.738,0-1.146.148-.661.308-1.286.482-1.873.173-.585.382-1.158.63-1.719.939-1.783,2.125-3.172,3.559-4.166,1.433-.993,3.213-1.796,5.339-2.407.494-.102,1.001-.177,1.52-.229.519-.05,1.049-.127,1.594-.23.197-.05.519-.063.964-.038.445.026.716-.012.816-.115,3.459-.05,6.476.357,9.047,1.223,2.57.867,4.375,2.522,5.413,4.968.445,1.02.704,2.205.778,3.555.074,1.351.111,2.765.111,4.242v16.892c0,.714.024,1.402.074,2.064.049.663.197,1.198.445,1.605.247.357.568.611.964.764.445.204.865.344,1.261.42.395.077.692.319.89.726.099.153.148.306.148.458,0,.153.024.357.074.612ZM211.479,212.94c.297-.713.457-1.541.482-2.484.024-.943.037-1.923.037-2.943,0-.56-.026-1.07-.074-1.528-.05-.459-.248-.815-.594-1.071-.148-.101-.494-.152-1.038-.152-.1.103-.272.152-.519.152-.248,0-.471.051-.668.153-.396.103-.841.204-1.335.306-.495.103-.989.204-1.483.305-.148,0-.31.013-.482.038-.174.026-.359.038-.556.038-.741.204-1.546.319-2.41.344-.866.027-1.669.141-2.41.344-.396.103-.754.191-1.075.267-.322.077-.68.166-1.075.268-.791.256-1.533.573-2.224.956-.693.382-1.286.853-1.78,1.413-.494.562-.865,1.237-1.112,2.026-.248.791-.347,1.746-.297,2.867,0,.51.086.981.259,1.414.173.433.383.828.631,1.185.395.561.914,1.032,1.557,1.413.642.383,1.335.702,2.076.956.247.051.494.077.741.077s.494.026.741.077c.345.103.779.166,1.298.19.519.027.951-.011,1.298-.114.297-.102.593-.14.89-.115.297.026.593-.012.89-.115.395-.102.778-.178,1.149-.23.371-.05.729-.152,1.075-.305,1.433-.611,2.657-1.35,3.67-2.217,1.013-.865,1.791-2.037,2.336-3.515Z" fill="#404040"/>
    <path d="M232.537,172.965c.741,0,1.483.013,2.224.038.741.026,1.261.243,1.557.65.247.306.382.726.408,1.261.024.535.037,1.084.037,1.644v4.433c0,.408-.013.829-.037,1.261-.026.433.011.802.111,1.108.197.714.642,1.172,1.335,1.376.247.051.482.077.704.077h.704c.544,0,1.211-.012,2.002-.038.79-.025,1.359.038,1.706.19.445.306.741.611.89.918.099.204.148.433.148.688v.764c0,.561-.025,1.083-.074,1.566-.05.485-.223.854-.519,1.109s-.704.395-1.223.42c-.519.026-1.064.026-1.632,0-.569-.025-1.125-.038-1.668-.038s-1.014.077-1.409.23c-.347.152-.593.408-.741.764-.148.357-.248.778-.297,1.261-.05.485-.063.994-.037,1.529.024.535.037,1.058.037,1.567v15.133c0,1.121-.013,2.307-.037,3.554-.026,1.25.185,2.205.63,2.867.247.409.568.688.964.841.395.152.864.28,1.409.382.148.051.308.064.482.038.173-.025.334-.012.482.038h.964c.494,0,.951.038,1.372.115.42.077.729.267.927.573.098.153.185.42.259.803.074.382.123.778.148,1.185.024.408.012.803-.037,1.185-.05.382-.148.676-.297.879-.198.357-.569.611-1.112.764-.396.103-.841.141-1.335.115-.494-.025-.939-.038-1.335-.038-.297,0-.593.013-.89.038-.297.026-.569.013-.816-.038h-.89c-.248-.05-.482-.088-.704-.115-.222-.024-.457-.038-.704-.038-.989-.254-1.842-.535-2.558-.84-.718-.306-1.323-.841-1.817-1.606-.693-1.018-1.088-2.305-1.186-3.86-.1-1.553-.148-3.221-.148-5.006v-20.026c-.148-.661-.285-1.146-.408-1.452-.124-.306-.482-.56-1.075-.764-.198-.05-.397-.05-.594,0-.198.051-.396.026-.593-.077h-1.186c-.643,0-1.175-.063-1.594-.191-.421-.126-.704-.42-.853-.878-.1-.204-.161-.432-.185-.688-.026-.255-.037-.509-.037-.764,0-.713.049-1.312.148-1.796.098-.484.395-.853.89-1.109.543-.203,1.248-.254,2.113-.152.865.103,1.594.051,2.188-.153.445-.255.79-.611,1.038-1.07.098-.306.148-.688.148-1.147v-7.299c0-.432.049-.803.148-1.109.197-.407.568-.738,1.112-.993.148,0,.284-.012.407-.038.123-.025.234-.038.334-.038Z" fill="#404040"/>
    <path d="M252.631,177.245c-.396-.305-.606-.852-.63-1.643-.026-.79-.037-1.567-.037-2.331v-1.299c0-.459.074-.841.223-1.146.197-.408.593-.713,1.186-.918.099-.05.21-.063.334-.038.123.026.234.013.334-.038.84,0,1.631.026,2.373.077.741.051,1.235.357,1.483.918.149.305.223.676.223,1.108v1.338c0,.917-.013,1.784-.037,2.599-.026.815-.359,1.351-1.001,1.605-.248.103-.507.153-.779.153h-2.41c-.495,0-.915-.127-1.261-.383ZM258.118,220.583c0,.51.012,1.032.037,1.566.024.536-.087.956-.334,1.261-.148.306-.371.497-.668.574-.297.076-.643.165-1.038.267h-1.112c-.643,0-1.199-.038-1.668-.115-.471-.077-.828-.317-1.075-.726-.198-.305-.297-.699-.297-1.185v-35.388c0-.536.123-.956.371-1.262.148-.254.345-.407.593-.458.247-.05.519-.126.816-.229.098,0,.21.013.334.037.123.027.234.014.334-.037.642,0,1.298.013,1.965.037.668.027,1.124.243,1.372.65.247.306.371.702.371,1.185v33.821Z" fill="#404040"/>
    <path d="M302.904,202.851c.099.305.148.777.148,1.413s-.026,1.084-.074,1.338v.764c-.05.409-.087.778-.111,1.108-.026.332-.063.701-.111,1.109-.1.305-.161.611-.185.917-.026.306-.087.611-.186.918-.198.663-.371,1.325-.519,1.987-.148.663-.347,1.274-.593,1.834-1.038,2.446-2.423,4.497-4.153,6.152-1.731,1.657-3.856,2.918-6.377,3.783-.544.204-1.125.356-1.743.459-.619.101-1.249.203-1.891.305-.297.05-.606.089-.927.115-.322.025-.63.038-.927.038-.198.05-.482.077-.853.077s-.63-.027-.778-.077c-.198-.051-.397-.064-.593-.038-.198.025-.371.012-.519-.038h-.445l-1.779-.23c-.693-.204-1.36-.408-2.002-.611-.643-.203-1.261-.432-1.854-.688-2.225-1.018-4.054-2.343-5.487-3.974-1.434-1.631-2.621-3.618-3.559-5.962-.248-.509-.433-1.018-.556-1.529-.124-.509-.235-1.044-.334-1.605-.1-.204-.137-.37-.111-.497.024-.126.012-.292-.037-.497-.1-.407-.161-.827-.185-1.261-.026-.432-.087-.852-.185-1.261v-.65c0-.177-.026-.394-.074-.65-.05-.254-.074-.699-.074-1.338s.049-1.108.149-1.413c.098-.357.123-.713.074-1.071-.05-.356-.026-.713.074-1.07.048-.255.086-.471.111-.65.024-.178.062-.394.111-.65.148-.611.284-1.223.408-1.834.123-.611.308-1.197.556-1.759.741-1.884,1.643-3.579,2.706-5.083,1.063-1.502,2.36-2.763,3.893-3.783.594-.407,1.211-.751,1.854-1.032.642-.279,1.309-.573,2.002-.879.593-.254,1.235-.42,1.928-.497.692-.077,1.384-.216,2.076-.42.345,0,.679-.012,1.001-.038.321-.025.63-.063.927-.115,4.399-.05,8.057.892,10.974,2.828,2.916,1.937,5.017,4.459,6.303,7.567.247.51.445,1.019.593,1.528.148.511.321,1.045.519,1.606.148.561.271,1.159.371,1.796.098.638.223,1.287.371,1.949.048.256.061.523.037.803-.026.28-.013.548.037.803ZM296.304,207.207c.099-.356.136-.764.111-1.223-.025-.459-.037-.891-.037-1.299,0-1.987-.174-3.669-.519-5.044-.148-.408-.272-.815-.371-1.224-.1-.407-.223-.789-.371-1.146-1.385-3.311-3.585-5.605-6.599-6.879-.347-.153-.718-.268-1.112-.344-.396-.077-.791-.165-1.186-.268-.397-.102-.816-.153-1.261-.153h-1.335l-1.335.23c-.494.103-.952.217-1.372.344-.421.128-.828.294-1.224.497-.346.103-.667.256-.964.459-.297.204-.569.408-.816.611-1.186.867-2.15,1.911-2.892,3.134s-1.385,2.65-1.928,4.28c-.148.511-.248,1.032-.297,1.567-.05.535-.124,1.083-.223,1.643-.05.204-.074.535-.074.994-.05.152-.063.331-.037.535.024.204.037.433.037.688v1.528c0,.511.049.969.148,1.376l.148.918c.098.51.185,1.006.26,1.49.074.485.21.931.407,1.338.494,1.223,1.075,2.37,1.743,3.44.668,1.07,1.495,1.962,2.484,2.675.247.153.469.281.667.382.197.103.42.23.668.383.395.256.827.471,1.298.65.469.179.975.344,1.52.497.247.103.482.141.704.115.223-.025.457-.012.704.038.148.051.457.103.927.152.47.051.828.027,1.075-.076.197-.05.395-.063.593-.038.197.026.395-.012.593-.115.395-.102.79-.191,1.186-.268.395-.077.766-.191,1.112-.344,1.68-.713,3.04-1.707,4.078-2.981,1.038-1.272,1.903-2.776,2.595-4.51.247-.611.408-1.261.482-1.949.074-.687.21-1.387.407-2.101Z" fill="#404040"/>
    <path d="M328.485,184.124c3.114-.102,5.61.331,7.489,1.299,1.878.968,3.385,2.42,4.523,4.356.297.51.531,1.058.704,1.643.174.587.334,1.185.482,1.797.247.968.397,2.013.445,3.134.049,1.121.075,2.267.075,3.439v20.102c0,.867-.012,1.733-.037,2.599-.026.867-.36,1.427-1.002,1.681-.247.103-.508.165-.779.191-.271.025-.555.038-.852.038-.642,0-1.26-.013-1.853-.038-.593-.026-1.014-.241-1.261-.65-.248-.356-.371-.815-.371-1.376v-20.714c0-1.375-.026-2.738-.074-4.089-.05-1.35-.272-2.509-.667-3.478-.396-1.018-.99-1.846-1.78-2.484-.791-.637-1.705-1.133-2.744-1.491-.297-.101-.606-.164-.927-.19-.322-.025-.63-.089-.927-.191-.248-.05-.631-.063-1.149-.038-.519.026-.878.064-1.075.115-.198.103-.371.141-.519.115-.148-.025-.322-.012-.519.038-.643.152-1.249.318-1.817.497-.569.179-1.101.42-1.594.726-.198.103-.371.204-.519.305-.148.103-.322.204-.519.306-1.731,1.274-2.991,3.185-3.782,5.732-.148.408-.248.829-.297,1.261-.05.433-.124.854-.223,1.261-.1.256-.124.497-.074.726.049.229.024.446-.074.65v1.605c-.05.153-.062.332-.037.535.024.204.037.434.037.688v18.077c0,.586-.124,1.058-.371,1.414-.248.409-.68.624-1.298.65-.619.025-1.249.038-1.891.038-.396,0-.767-.026-1.112-.077-.346-.05-.643-.178-.89-.382-.396-.255-.593-.738-.593-1.452v-35.618c0-.458.098-.814.297-1.07.148-.305.395-.509.741-.611.197-.05.482-.102.853-.153.371-.05.753-.077,1.149-.077s.778.027,1.149.077c.371.051.63.128.778.23.544.357.79.803.741,1.338-.05.535.024,1.134.223,1.796.098.306.297.561.593.764.593.051,1.075-.178,1.446-.688.371-.509.753-.918,1.149-1.223.692-.509,1.396-.98,2.113-1.414.716-.432,1.544-.803,2.484-1.108.395-.153.827-.255,1.298-.306.469-.05.927-.126,1.372-.229.247-.05.494-.077.741-.077h.742Z" fill="#404040"/>
    <path d="M385.506,221.424c.149.815.075,1.49-.222,2.025-.297.536-.693.93-1.186,1.185-.249.101-.508.152-.779.152s-.556.05-.852.153c-1.088.255-2.163.191-3.226-.191-1.064-.382-1.793-.852-2.187-1.413-.248-.357-.471-.777-.667-1.261-.198-.484-.445-.879-.742-1.185-.099-.101-.21-.203-.333-.305-.124-.102-.285-.127-.483-.077-.544.153-1.051.433-1.519.841-.471.408-.927.764-1.372,1.07-.643.409-1.334.778-2.076,1.108-.741.332-1.532.624-2.373.879-.495.153-1.026.254-1.594.305-.569.05-1.125.127-1.668.23-.248.05-.457.077-.631.077h-.556c-.544.102-1.064.102-1.558,0h-.667c-.248-.051-.495-.077-.742-.077s-.47-.051-.667-.153c-.198-.051-.359-.064-.482-.038-.124.025-.259.012-.408-.038-.397-.103-.791-.19-1.186-.267-.397-.077-.767-.191-1.112-.344-1.483-.661-2.682-1.413-3.596-2.254-.915-.841-1.668-2.026-2.261-3.555-.445-1.12-.668-2.471-.668-4.05v-1.606c.049-.254.086-.522.111-.802.024-.28.062-.574.111-.879.197-.56.396-1.12.593-1.681s.445-1.071.742-1.529c.89-1.478,2.1-2.573,3.633-3.287,1.532-.713,3.213-1.35,5.043-1.911.691-.203,1.409-.356,2.15-.458.742-.102,1.483-.23,2.225-.383.345-.101.679-.152,1.001-.152s.679-.05,1.075-.153c.345-.102.692-.165,1.038-.191.345-.025.716-.089,1.112-.191,1.235-.305,2.397-.573,3.485-.802,1.086-.23,1.952-.803,2.595-1.72.297-.407.543-.929.741-1.566.197-.637.197-1.338,0-2.102-.297-1.223-.73-2.19-1.298-2.904-.569-.713-1.372-1.273-2.41-1.682-.593-.254-1.298-.432-2.113-.535-.816-.102-1.669-.153-2.559-.153s-1.755.051-2.595.153c-.841.103-1.557.256-2.15.458-.841.306-1.657.739-2.447,1.299-.396.306-.754.701-1.075,1.185-.322.485-.606,1.007-.852,1.567-.149.409-.285.841-.408,1.299-.124.458-.359.816-.704,1.07-.198.153-.532.268-1.001.344-.471.077-.952.115-1.446.115s-.977-.038-1.445-.115c-.471-.077-.805-.191-1.001-.344-.198-.152-.346-.407-.445-.764-.099-.356-.099-.738,0-1.146.149-.661.309-1.286.483-1.873.172-.585.382-1.158.63-1.719.938-1.783,2.125-3.172,3.56-4.166,1.432-.993,3.213-1.796,5.338-2.407.494-.102,1.001-.177,1.52-.229.519-.05,1.05-.127,1.594-.23.197-.05.519-.063.964-.038.445.026.716-.012.816-.115,3.46-.05,6.475.357,9.046,1.223,2.57.867,4.375,2.522,5.413,4.968.445,1.02.704,2.205.778,3.555.074,1.351.111,2.765.111,4.242v16.892c0,.714.024,1.402.074,2.064.049.663.197,1.198.445,1.605.247.357.568.611.964.764.445.204.865.344,1.261.42.395.077.691.319.89.726.098.153.148.306.148.458,0,.153.024.357.074.612ZM374.903,212.94c.297-.713.457-1.541.482-2.484.024-.943.037-1.923.037-2.943,0-.56-.026-1.07-.075-1.528-.05-.459-.248-.815-.593-1.071-.148-.101-.495-.152-1.038-.152-.1.103-.272.152-.519.152s-.471.051-.667.153c-.397.103-.842.204-1.335.306-.495.103-.99.204-1.483.305-.149,0-.31.013-.482.038-.174.026-.359.038-.557.038-.741.204-1.546.319-2.41.344-.865.027-1.668.141-2.409.344-.397.103-.755.191-1.076.267-.322.077-.68.166-1.075.268-.791.256-1.532.573-2.225.956-.692.382-1.285.853-1.779,1.413-.495.562-.865,1.237-1.112,2.026-.248.791-.346,1.746-.297,2.867,0,.51.086.981.26,1.414.172.433.382.828.63,1.185.396.561.914,1.032,1.558,1.413.642.383,1.334.702,2.076.956.247.051.493.077.742.077.246,0,.493.026.741.077.345.103.778.166,1.298.19.519.027.951-.011,1.298-.114.297-.102.593-.14.89-.115.297.026.593-.012.89-.115.396-.102.778-.178,1.15-.23.371-.05.729-.152,1.075-.305,1.433-.611,2.657-1.35,3.67-2.217,1.012-.865,1.792-2.037,2.336-3.515Z" fill="#404040"/>
    <path d="M394.107,169.831h2.04c.716,0,1.248.179,1.594.535.247.357.383.829.408,1.414.024.586.037,1.185.037,1.796v48.306c0,.714-.124,1.274-.371,1.681-.148.256-.359.409-.63.458-.272.052-.606.128-1.001.23h-1.038c-.544,0-1.064-.012-1.557-.038-.495-.025-.865-.191-1.112-.497-.248-.407-.384-.918-.408-1.529-.025-.611-.037-1.248-.037-1.911v-46.318c0-.56-.012-1.158-.037-1.797-.026-.636.085-1.133.333-1.49.197-.306.568-.56,1.112-.764.098-.05.21-.063.334-.038.123.026.234.013.333-.038Z" fill="#404040"/>
  </g>
</svg>