<?xml version="1.0" encoding="UTF-8" standalone="no"?>
<!-- Created with Inkscape (http://www.inkscape.org/) -->

<svg
   xmlns:dc="http://purl.org/dc/elements/1.1/"
   xmlns:cc="http://creativecommons.org/ns#"
   xmlns:rdf="http://www.w3.org/1999/02/22-rdf-syntax-ns#"
   xmlns:svg="http://www.w3.org/2000/svg"
   xmlns="http://www.w3.org/2000/svg"
   xmlns:sodipodi="http://sodipodi.sourceforge.net/DTD/sodipodi-0.dtd"
   xmlns:inkscape="http://www.inkscape.org/namespaces/inkscape"
   width="355"
   height="355"
   id="svg2"
   version="1.1"
   inkscape:version="0.48.4 r9939"
   sodipodi:docname="lpic.svg">
  <defs
     id="defs4" />
  <sodipodi:namedview
     id="base"
     pagecolor="#ffffff"
     bordercolor="#666666"
     borderopacity="1.0"
     inkscape:pageopacity="0.0"
     inkscape:pageshadow="2"
     inkscape:zoom="0.49497475"
     inkscape:cx="61.373072"
     inkscape:cy="84.020866"
     inkscape:document-units="px"
     inkscape:current-layer="layer1"
     showgrid="false"
     inkscape:window-width="1855"
     inkscape:window-height="1056"
     inkscape:window-x="65"
     inkscape:window-y="24"
     inkscape:window-maximized="1"
     fit-margin-top="0"
     fit-margin-left="0"
     fit-margin-right="0"
     fit-margin-bottom="0" />
  <metadata
     id="metadata7">
    <rdf:RDF>
      <cc:Work
         rdf:about="">
        <dc:format>image/svg+xml</dc:format>
        <dc:type
           rdf:resource="http://purl.org/dc/dcmitype/StillImage" />
        <dc:title></dc:title>
      </cc:Work>
    </rdf:RDF>
  </metadata>
  <g
     inkscape:label="Layer 1"
     inkscape:groupmode="layer"
     id="layer1"
     transform="translate(-157.85713,-150.93362)">
    <path
       style="fill:none;stroke:#000000;stroke-width:1px;stroke-linecap:butt;stroke-linejoin:miter;stroke-opacity:1"
       d="m 354.64286,218.79075 c 0.71428,-0.23809 1.42857,-0.47619 2.14285,-0.71428 l -40,155 106.07143,-0.35715 -12.14285,45.35715 -151.07143,0.35714 52.85714,-200.71429 43.92857,0.71429"
       id="path3842"
       inkscape:connector-curvature="0" />
    <g
       id="g3869">
      <path
         transform="matrix(1.0665236,0,0,1.0665236,-23.451869,-21.467686)"
         d="m 502.85713,328.07648 c 0,91.91596 -74.51261,166.42857 -166.42857,166.42857 -91.91596,0 -166.42858,-74.51261 -166.42858,-166.42857 0,-91.91597 74.51262,-166.42858 166.42858,-166.42858 91.91596,0 166.42857,74.51261 166.42857,166.42858 z"
         sodipodi:ry="166.42857"
         sodipodi:rx="166.42857"
         sodipodi:cy="328.07648"
         sodipodi:cx="336.42856"
         id="path3066"
         style="fill:#890000;fill-opacity:1;stroke:none"
         sodipodi:type="arc" />
      <path
         transform="matrix(1.030137,0,0,1.030137,-20.722113,-30.900934)"
         d="m 474.28571,349.86218 c 0,71.99427 -58.36289,130.35715 -130.35715,130.35715 -71.99427,0 -130.35715,-58.36288 -130.35715,-130.35715 0,-71.99426 58.36288,-130.35714 130.35715,-130.35714 71.99426,0 130.35715,58.36288 130.35715,130.35714 z"
         sodipodi:ry="130.35715"
         sodipodi:rx="130.35715"
         sodipodi:cy="349.86218"
         sodipodi:cx="343.92856"
         id="path3846"
         style="fill:#ffffff;fill-opacity:1;stroke:none"
         sodipodi:type="arc" />
      <path
         transform="matrix(1.0609756,0,0,1.0609756,-25.284611,-17.294884)"
         d="m 414.66763,262.92798 c 0,11.43678 -9.27134,20.70813 -20.70813,20.70813 -11.43678,0 -20.70812,-9.27135 -20.70812,-20.70813 0,-11.43678 9.27134,-20.70813 20.70812,-20.70813 11.43679,0 20.70813,9.27135 20.70813,20.70813 z"
         sodipodi:ry="20.708128"
         sodipodi:rx="20.708128"
         sodipodi:cy="262.92798"
         sodipodi:cx="393.9595"
         id="path3838"
         style="fill:#890000;fill-opacity:1;stroke:none"
         sodipodi:type="arc" />
      <path
         inkscape:connector-curvature="0"
         id="path3848"
         d="m 262.9147,409.48439 c 1.17158,-4.41965 12.95859,-49.11979 26.19335,-99.33365 l 24.0632,-91.29793 20.27902,0.0686 c 11.15346,0.0378 20.65969,0.3004 21.12496,0.58365 0.61192,0.37252 -4.51976,21.26292 -18.55009,75.51499 -10.66781,41.25 -19.62281,75.90443 -19.9,77.00984 l -0.50398,2.00985 52.88241,-0.22413 c 29.08532,-0.12327 52.88231,0.0477 52.88219,0.37998 -1.9e-4,0.5036 -9.97859,38.1527 -11.15128,42.07446 -0.35288,1.1801 -4.5418,1.25 -74.91186,1.25 l -74.53808,0 2.13016,-8.03571 z"
         style="fill:#890000;fill-opacity:1;stroke:#000000;stroke-width:0;stroke-miterlimit:4;stroke-opacity:1;stroke-dasharray:none" />
    </g>
  </g>
</svg>
