<?xml version="1.0" encoding="UTF-8" standalone="no"?>
<!-- Created with Inkscape (http://www.inkscape.org/) -->

<svg
   version="1.1"
   id="svg1"
   width="256.84"
   height="51.52"
   viewBox="0 0 256.84 51.52"
   xmlns="http://www.w3.org/2000/svg"
   xmlns:svg="http://www.w3.org/2000/svg">
  <defs
     id="defs1" />
  <g
     id="g1">
    <g
       id="group-R5">
      <path
         id="path2"
         d="m 712.879,40.4258 c -27.07,0 -38.621,12.2461 -38.621,40.9453 V 262.137 h 113.605 v 40.422 H 674.258 v 83.793 h -40.426 v -2.5 -302.4809 c 0,-53.2305 27.133,-81.36719375 78.473,-81.36719375 H 819.227 V 40.4258 H 712.879"
         style="fill:#4f8cd1;fill-opacity:1;fill-rule:nonzero;stroke:none"
         transform="matrix(0.13333333,0,0,-0.13333333,0,51.52)" />
      <path
         id="path3"
         d="m 959.813,302.559 c -31.008,0 -56.973,-10.352 -77.161,-30.762 -20.187,-20.371 -30.422,-45.238 -30.422,-73.922 v -93.184 c 0,-28.6988 10.235,-53.5621 30.422,-73.9058 C 902.824,10.3555 928.793,0.00390625 959.813,0.00390625 H 1085.84 V 40.4258 H 959.813 c -20.454,0 -36.95,6.043 -49.028,17.957 -12.019,11.836 -18.113,27.4219 -18.113,46.3082 v 93.184 c 0,18.902 6.094,34.477 18.117,46.309 12.059,11.914 28.551,17.953 49.024,17.953 h 126.027 v 40.422 H 959.813"
         style="fill:#4f8cd1;fill-opacity:1;fill-rule:nonzero;stroke:none"
         transform="matrix(0.13333333,0,0,-0.13333333,0,51.52)" />
      <path
         id="path4"
         d="m 1524.44,302.559 c -22.63,0 -42.11,-8.571 -57.91,-25.469 -15.58,-16.676 -23.47,-37.047 -23.47,-60.563 V 0.00390625 h 40.44 V 216.527 c 0,13.664 3.9,24.879 11.59,33.344 7.38,8.141 17.25,12.266 29.35,12.266 h 104.02 v 2.5 37.922 h -104.02"
         style="fill:#4f8cd1;fill-opacity:1;fill-rule:nonzero;stroke:none"
         transform="matrix(0.13333333,0,0,-0.13333333,0,51.52)" />
      <path
         id="path5"
         d="m 185.152,302.559 -95.027,0.222 h -0.0039 c -26.6797,0 -48.5781,-8.152 -65.0938,-24.23 C 8.42188,262.402 0,242.004 0,217.922 V 0.210938 H 40.4258 V 217.922 c 0,13.66 4.2578,24.555 12.6562,32.375 8.6016,8 21.0625,12.051 37.0235,12.051 l 95.0275,-0.211 c 15.937,0 28.394,-4.063 37.051,-12.074 8.379,-7.782 12.629,-18.676 12.629,-32.368 V 0.00390625 h 40.441 V 217.695 c 0,24.039 -8.414,44.438 -25.012,60.645 -16.531,16.07 -38.426,24.219 -65.09,24.219"
         style="fill:#4f8cd1;fill-opacity:1;fill-rule:nonzero;stroke:none"
         transform="matrix(0.13333333,0,0,-0.13333333,0,51.52)" />
      <path
         id="path6"
         d="m 366.039,216.527 c 0,13.688 3.891,24.903 11.563,33.34 7.39,8.141 17.277,12.27 29.371,12.27 h 98.343 c 29.075,0 41.477,-13.742 41.477,-45.961 0,-31.528 -12.402,-44.981 -41.477,-44.981 H 366.039 Z m 139.309,-85.156 c 24.644,0 44.679,7.824 59.55,23.254 14.692,15.313 22.137,36.023 22.137,61.566 0,25.407 -7.508,46.344 -22.324,62.227 -15.063,16.023 -35.051,24.145 -59.395,24.145 h -98.343 c -22.614,0 -42.102,-8.571 -57.91,-25.469 C 333.48,260.395 325.586,240.02 325.586,216.527 V 95.3672 c 0,-28.6445 8.777,-51.9531 26.094,-69.2969 C 369.043,8.77344 393.527,0.00390625 424.469,0.00390625 h 148.347 2.5 V 2.50391 37.9258 v 2.5 h -2.5 -148.347 c -40.957,0 -58.43,16.4336 -58.43,54.9414 v 36.0038 h 139.309"
         style="fill:#4f8cd1;fill-opacity:1;fill-rule:nonzero;stroke:none"
         transform="matrix(0.13333333,0,0,-0.13333333,0,51.52)" />
      <path
         id="path7"
         d="m 1705.34,216.527 c 0,13.692 3.89,24.907 11.56,33.34 7.39,8.141 17.27,12.27 29.37,12.27 h 98.34 c 29.08,0 41.49,-13.742 41.49,-45.961 0,-31.528 -12.41,-44.981 -41.49,-44.981 h -139.27 z m 58.42,-176.1012 c -40.95,0 -58.42,16.4336 -58.42,54.9414 v 36.0038 h 139.3 c 24.65,0 44.69,7.824 59.55,23.254 14.7,15.32 22.15,36.027 22.15,61.566 0,25.403 -7.52,46.336 -22.32,62.227 -15.07,16.023 -35.05,24.145 -59.41,24.145 h -98.34 c -22.6,0 -42.1,-8.571 -57.92,-25.469 -15.57,-16.703 -23.46,-37.078 -23.46,-60.567 V 95.3672 c 0,-28.6524 8.78,-51.9649 26.09,-69.2969 17.35,-17.29686 41.84,-26.06639375 72.78,-26.06639375 h 150.85 V 40.4258 h -150.85"
         style="fill:#4f8cd1;fill-opacity:1;fill-rule:nonzero;stroke:none"
         transform="matrix(0.13333333,0,0,-0.13333333,0,51.52)" />
      <path
         id="path8"
         d="M 1352.3,131.371 V 40.4258 l -139.27,0.0078 c -29.07,0 -41.47,13.7422 -41.47,45.957 0,31.5234 12.4,44.9804 41.47,44.9804 z m -58.42,171.192 h -136.97 v -40.426 h 136.97 c 40.95,0 58.42,-16.43 58.42,-54.93 V 171.195 H 1213 c -24.66,0 -44.7,-7.82 -59.55,-23.261 -14.7,-15.301 -22.14,-36.016 -22.14,-61.5512 0,-25.4219 7.51,-46.3594 22.33,-62.2265 15.05,-16.02739 35.03,-24.15239375 59.39,-24.15239375 h 179.73 V 207.207 c 0,28.637 -8.78,51.949 -26.1,69.285 -17.34,17.301 -41.83,26.071 -72.78,26.071"
         style="fill:#4f8cd1;fill-opacity:1;fill-rule:nonzero;stroke:none"
         transform="matrix(0.13333333,0,0,-0.13333333,0,51.52)" />
    </g>
  </g>
</svg>
