<svg id="Layer_1" data-name="Layer 1" xmlns="http://www.w3.org/2000/svg" viewBox="0 0 564.85 668.66"><defs><style>.cls-1{fill:#242265;}.cls-2{fill:#ff6c00;}.cls-3{fill:#222160;}</style></defs><title>yWorks - Orange-tde-V</title><g id="yWorks"><path class="cls-1" d="M220.62,487.94c0-28.69,20.62-48.85,49.7-48.85s49.88,20.16,49.88,48.85-20.79,49-49.88,49-49.7-20.34-49.7-49m76.52,0c0-17-10.8-28.86-26.82-28.86-15.79,0-26.81,11.88-26.81,28.86s11,28.92,26.81,28.92c16-.06,26.82-11.88,26.82-28.92"/><path class="cls-1" d="M397.45,443.46l-5.85,19.15a33.47,33.47,0,0,0-12-2.05c-13.06,0-22.1,8.52-22.1,23.29v50.5H334.8V441.59h15.39l4.38,13.75c5.39-10.4,14.77-15.8,26.81-15.8a31.27,31.27,0,0,1,16.07,3.92"/><path class="cls-2" d="M109.16,441.59v.62l-48.68,123H36.4v-.45L51,532,11.23,442.16v-.63H35.77l25.85,62.15,23.8-62.21h23.69v.12Z"/><path class="cls-1" d="M196.65,441.59l-14.32,41.13a106.76,106.76,0,0,0-3.52,11.41,110.46,110.46,0,0,0-5.4-11.7L155.29,446h-4.83l-18,36.53c-1.87,3.8-3.52,7.32-5.16,11.41-1-4-2.05-7.5-3.36-11.24L113.2,451.87l-12.39,31.36,19.43,51.86h6.87l26-51.81,25.79,51.81H186l34.7-92.93v-.63h-24Z"/><path class="cls-1" d="M523.11,479.19c-9.94-3.52-16.82-7-16.82-13.12,0-5.85,6-7.89,13.13-7.89A47.12,47.12,0,0,1,540,463.57l7.89-15.22A57.86,57.86,0,0,0,517.6,440c-17.67,0-32.83,8.92-32.83,26,0,15.23,11.41,22.84,26.18,28.52,9.09,3.52,17.84,6.87,17.84,13.75,0,5.85-5.4,9.54-13.75,9.54a46.94,46.94,0,0,1-25.33-7.72l-1.48-1v21.14a64.33,64.33,0,0,0,28.52,6.19c20.33,0,34.25-10.8,34.25-28.06-.06-15.4-11.64-23.13-27.89-29.15"/><polygon class="cls-1" points="477.61 521.68 447.33 486.52 477.61 450.45 477.61 441.59 458.63 441.59 427.79 478.34 427.79 409.55 405.12 409.55 405.12 534.24 427.79 534.24 427.79 494.76 461.08 534.24 477.61 534.24 477.61 521.68"/></g><path class="cls-1" d="M108.08,154.66l.35,75.55A107.5,107.5,0,0,0,162.56,323l65.61,37.5A107.34,107.34,0,0,0,335.59,360l65.27-38.11a107.45,107.45,0,0,0,53.29-93.28l-.34-75.55a107.41,107.41,0,0,0-54.14-92.76l-65.61-37.5a107.34,107.34,0,0,0-107.42.52L161.37,61.44a107.36,107.36,0,0,0-53.29,93.22"/><path class="cls-2" d="M210,166.76c-5.16,0-9.94.28-14.54-1-9.14-2.44-15.28-7.95-17.55-17.26-2.61-10.63,4.26-22,14.83-24.89,7.84-2.15,14.71-.11,20.9,4.78,4.26,3.35,7,8,9.66,12.55a105.41,105.41,0,0,0,7.78,12.61,49.86,49.86,0,0,0,13.41,11.93c5.17,3.24,10.45,6.36,15.9,9.09,7.95,4,16.25,6,25.28,5.06,8.46-.91,15.85-4.32,23-8.58,3.12-1.88,6.36-3.64,9.48-5.57a50.92,50.92,0,0,0,17.33-17.95c2.73-4.6,5.17-9.43,8.35-13.8A25.37,25.37,0,0,1,359,123.3c9.48-2.21,20.62,2.67,24.59,12.73,4.55,11.42-1.19,23.86-12.78,28.46a31.85,31.85,0,0,1-12.15,2.27h-11a55.6,55.6,0,0,0-18,3,75.23,75.23,0,0,0-11.76,5.74c-3.69,2.1-7.39,4.26-11,6.53a43.94,43.94,0,0,0-15.23,15.57,45.42,45.42,0,0,0-5.85,18.12c-.51,5.51-.4,11.08-.4,16.59a57.55,57.55,0,0,0,2.16,17.32A67.84,67.84,0,0,0,293.1,262c3,5.28,6.48,10.28,8.3,16.13,1.87,6.08,1.93,12.1-.86,17.89-3.35,7-8.91,11.2-16.75,12.16a20.47,20.47,0,0,1-17.84-6.3c-5.06-5.17-6.87-11.65-6-18.81.86-6.81,4.32-12.49,7.73-18.18,3.58-5.9,6.76-11.92,8.12-18.8.46-2.38.68-4.83.91-7.27A132.33,132.33,0,0,0,277,223c-.23-6.82-.63-13.58-3.47-20a44.47,44.47,0,0,0-8.75-13.46,66.69,66.69,0,0,0-14-10.51c-4.15-2.44-8.24-4.88-12.56-7a51,51,0,0,0-18.68-5C216.24,166.76,212.89,166.93,210,166.76Z"/><path class="cls-3" d="M17,606.17V592.23L12.45,592v-2.65H17v-7.79h3.23v7.79h8.37v2.86H20.24v13.94c0,3,1.22,4,3.29,4a7.73,7.73,0,0,0,4.61-1.59L29.57,611a10.48,10.48,0,0,1-6.36,2.23C19.39,613.22,17,611,17,606.17Z"/><path class="cls-3" d="M53.26,598.49V612.8H50V598.38c0-3.92-1.59-6.46-5.51-6.46-5,0-7.73,4.24-7.73,9.32V612.8H33.54v-38h3.24V590c0,1.16,0,2.27-.06,3.65a8.68,8.68,0,0,1,8.11-4.71C50.55,588.9,53.26,592.5,53.26,598.49Z"/><path class="cls-3" d="M80.87,600.13a18.23,18.23,0,0,1-.16,2.28H62a8.57,8.57,0,0,0,8.74,8,9.12,9.12,0,0,0,7.16-2.86l1.85,2.33a12.32,12.32,0,0,1-9,3.55c-7.1,0-12.09-5.09-12.09-12.35,0-6.78,4.88-12.24,11.82-12.24C77,588.79,80.87,593.29,80.87,600.13Zm-18.81-.58H77.69c-.11-5-3-7.74-7.26-7.74S62.69,594.88,62.06,599.55Z"/><path class="cls-3" d="M119.77,574.8v38h-2.49l-.48-4.19a10.63,10.63,0,0,1-9.22,4.72c-6.94,0-11.76-5.2-11.76-12.35,0-6.94,4.87-12.08,11.76-12.08a10.83,10.83,0,0,1,9.06,4.45c0-2-.1-4.14-.1-6.36V574.8Zm-3.13,26.28c0-5.3-3.55-9.16-8.85-9.16s-8.74,3.81-8.74,9.16,3.55,9.17,8.74,9.17C113.2,610.25,116.64,606.38,116.64,601.08Z"/><path class="cls-3" d="M126.4,580.89a2.44,2.44,0,1,1,2.43,2.34A2.33,2.33,0,0,1,126.4,580.89Zm.79,8.48h3.23V612.8h-3.23Z"/><path class="cls-3" d="M155.28,597.22V612.8H152.9l-.59-4.24a9.84,9.84,0,0,1-8.85,4.66c-4.56,0-7.47-2.49-7.47-6.52,0-5.24,4.82-8.27,11.71-8.27a32.57,32.57,0,0,1,4.29.22v-1.59c0-3.29-2.33-4.93-5.93-4.93a18.39,18.39,0,0,0-7.74,2l-1.11-2.76a21.58,21.58,0,0,1,9.17-2.22C151.73,589.11,155.28,591.92,155.28,597.22ZM152,601.35a27.75,27.75,0,0,0-3.81-.21c-5.51,0-8.8,1.91-8.8,5.35,0,2.33,1.7,3.71,4.61,3.71C148.81,610.2,151.84,606.7,152,601.35Z"/><path class="cls-3" d="M184.64,589.37v25c0,7.21-5.35,10.65-11.55,10.65a14.31,14.31,0,0,1-10.6-4.18l2-2.28a11.41,11.41,0,0,0,8.43,3.44c4.77,0,8.48-2.49,8.48-7.68,0-1.8,0-3.55.05-5.3a11.28,11.28,0,0,1-9,4.24c-7.2,0-11.76-5.46-11.76-12.14s4.45-12.18,11.6-12.18a11,11,0,0,1,9.23,4.34l.74-3.87Zm-3.12,11.71c0-4.92-2.92-9.16-8.86-9.16-5.51,0-8.69,4-8.69,9.11s3.34,9.17,8.64,9.17C178.49,610.2,181.52,606,181.52,601.08Z"/><path class="cls-3" d="M205.79,589.69l-1,2.86a8.59,8.59,0,0,0-3.12-.58c-3.82,0-6.41,2.7-6.41,7.26V612.8h-3.24V589.37h2.44l.64,3.45A7.25,7.25,0,0,1,202,588.9,9.17,9.17,0,0,1,205.79,589.69Z"/><path class="cls-3" d="M226.4,597.22V612.8H224l-.58-4.24a9.86,9.86,0,0,1-8.85,4.66c-4.56,0-7.48-2.49-7.48-6.52,0-5.24,4.83-8.27,11.72-8.27a32.67,32.67,0,0,1,4.29.22v-1.59c0-3.29-2.33-4.93-5.94-4.93a18.31,18.31,0,0,0-7.73,2l-1.12-2.76a21.58,21.58,0,0,1,9.17-2.22C222.85,589.11,226.4,591.92,226.4,597.22Zm-3.28,4.13a27.91,27.91,0,0,0-3.82-.21c-5.51,0-8.79,1.91-8.79,5.35,0,2.33,1.69,3.71,4.61,3.71C219.94,610.2,223,606.7,223.12,601.35Z"/><path class="cls-3" d="M268,598.12V612.8h-3.23V598c0-3.76-1.91-6-5.19-6-4.72,0-7.16,4.29-7.16,8.69V612.8h-3.23V597.9c0-3.23-1.64-6-5.19-6-4.77,0-7.21,4.29-7.21,8.69V612.8h-3.23V589.37H236l.74,4a8.31,8.31,0,0,1,7.63-4.5c3.55,0,6.15,1.74,7.26,4.71a8.74,8.74,0,0,1,8.16-4.71C265.09,588.9,268,592.45,268,598.12Z"/><path class="cls-3" d="M309.51,598.12V612.8h-3.24V598c0-3.76-1.9-6-5.19-6-4.72,0-7.15,4.29-7.15,8.69V612.8h-3.24V597.9c0-3.23-1.64-6-5.19-6-4.77,0-7.21,4.29-7.21,8.69V612.8h-3.23V589.37h2.44l.74,4a8.32,8.32,0,0,1,7.63-4.5c3.55,0,6.15,1.74,7.26,4.71a8.74,8.74,0,0,1,8.16-4.71C306.64,588.9,309.51,592.45,309.51,598.12Z"/><path class="cls-3" d="M315.82,580.89a2.44,2.44,0,1,1,2.43,2.34A2.33,2.33,0,0,1,315.82,580.89Zm.79,8.48h3.23V612.8h-3.23Z"/><path class="cls-3" d="M347,598.49V612.8h-3.24V598.43c0-4-1.48-6.51-5.4-6.51-4.72,0-7.84,3.39-7.84,8.26V612.8h-3.24V589.37h2.44l.74,4a9.08,9.08,0,0,1,8.22-4.45C344.12,588.9,347,592.39,347,598.49Z"/><path class="cls-3" d="M376.34,589.37v25c0,7.21-5.35,10.65-11.55,10.65a14.31,14.31,0,0,1-10.6-4.18l2-2.28a11.41,11.41,0,0,0,8.43,3.44c4.77,0,8.48-2.49,8.48-7.68,0-1.8,0-3.55.05-5.3a11.3,11.3,0,0,1-9,4.24c-7.21,0-11.76-5.46-11.76-12.14s4.45-12.18,11.6-12.18a11,11,0,0,1,9.22,4.34l.74-3.87Zm-3.13,11.71c0-4.92-2.91-9.16-8.85-9.16-5.51,0-8.69,4-8.69,9.11s3.34,9.17,8.64,9.17C370.19,610.2,373.21,606,373.21,601.08Z"/><path class="cls-3" d="M415.51,600.13a18.23,18.23,0,0,1-.16,2.28H396.59a8.57,8.57,0,0,0,8.74,8,9.09,9.09,0,0,0,7.15-2.86l1.86,2.33a12.36,12.36,0,0,1-9,3.55c-7.1,0-12.08-5.09-12.08-12.35,0-6.78,4.88-12.24,11.82-12.24C411.64,588.79,415.51,593.29,415.51,600.13Zm-18.82-.58h15.64c-.11-5-3-7.74-7.27-7.74S397.33,594.88,396.69,599.55Z"/><path class="cls-3" d="M417.63,612.69l8.69-12.24-7.84-11v-.11h3.71l4.13,5.89a24.07,24.07,0,0,1,1.85,2.86c.64-1.06,1.33-2.07,1.91-2.92l4.19-5.83h3.6v.11l-7.84,11,8.69,12.24v.11H435L430.19,606a29.68,29.68,0,0,1-2-3.13c-.74,1.22-1.32,2.18-2.06,3.18l-4.88,6.79h-3.6Z"/><path class="cls-3" d="M467.23,601c0,7.21-4.87,12.35-11.6,12.35a11.21,11.21,0,0,1-9.12-4.4c.06,1.8.11,4,.11,6.3v9.22h-3.23V589.37h2.43l.69,3.92a11.11,11.11,0,0,1,9.17-4.39C462.36,588.9,467.23,594,467.23,601Zm-3.23.16c0-5.41-3.55-9.22-8.58-9.22a8.63,8.63,0,0,0-9,9.06c0,5.56,3.76,9.32,9,9.32C460.45,610.3,464,606.49,464,601.14Z"/><path class="cls-3" d="M493.52,600.13a16.51,16.51,0,0,1-.16,2.28H474.6a8.58,8.58,0,0,0,8.75,8,9.11,9.11,0,0,0,7.15-2.86l1.85,2.33a12.32,12.32,0,0,1-9,3.55c-7.1,0-12.08-5.09-12.08-12.35,0-6.78,4.87-12.24,11.81-12.24C489.65,588.79,493.52,593.29,493.52,600.13Zm-18.81-.58h15.63c-.11-5-3-7.74-7.26-7.74S475.34,594.88,474.71,599.55Z"/><path class="cls-3" d="M512.65,589.69l-.95,2.86a8.61,8.61,0,0,0-3.13-.58c-3.81,0-6.41,2.7-6.41,7.26V612.8h-3.23V589.37h2.44l.63,3.45a7.27,7.27,0,0,1,6.84-3.92A9.16,9.16,0,0,1,512.65,589.69Z"/><path class="cls-3" d="M518.27,606.17V592.23l-4.55-.21v-2.65h4.55v-7.79h3.24v7.79h8.37v2.86h-8.37v13.94c0,3,1.22,4,3.28,4a7.69,7.69,0,0,0,4.61-1.59l1.43,2.43a10.48,10.48,0,0,1-6.36,2.23C520.66,613.22,518.27,611,518.27,606.17Z"/><path class="cls-3" d="M533,610.62l1.65-2.54a11.3,11.3,0,0,0,6.89,2.12c2.86,0,4.71-1.43,4.71-3.55,0-2.28-2.59-3.45-5.4-4.56-3.82-1.48-7-3.28-7-7.05s3.61-5.93,7.58-5.93a13,13,0,0,1,7.1,2.12l-1.43,2.33a11.35,11.35,0,0,0-5.51-1.48c-2.39,0-4.51.79-4.51,3s2.18,3.18,4.93,4.24c4.24,1.59,7.48,3.45,7.48,7.37s-3.34,6.57-8,6.57A14.63,14.63,0,0,1,533,610.62Z"/></svg>