<?xml version="1.0" encoding="UTF-8" standalone="no"?>
<!-- Created with Inkscape (http://www.inkscape.org/) -->

<svg
   xmlns:dc="http://purl.org/dc/elements/1.1/"
   xmlns:cc="http://creativecommons.org/ns#"
   xmlns:rdf="http://www.w3.org/1999/02/22-rdf-syntax-ns#"
   xmlns:svg="http://www.w3.org/2000/svg"
   xmlns="http://www.w3.org/2000/svg"
   xmlns:sodipodi="http://sodipodi.sourceforge.net/DTD/sodipodi-0.dtd"
   xmlns:inkscape="http://www.inkscape.org/namespaces/inkscape"
   width="744.09448819"
   height="1052.3622047"
   id="svg2"
   version="1.1"
   inkscape:version="0.48.4 r9939"
   sodipodi:docname="New document 1">
  <defs
     id="defs4" />
  <sodipodi:namedview
     id="base"
     pagecolor="#ffffff"
     bordercolor="#666666"
     borderopacity="1.0"
     inkscape:pageopacity="0.0"
     inkscape:pageshadow="2"
     inkscape:zoom="1.4"
     inkscape:cx="147.38553"
     inkscape:cy="709.69923"
     inkscape:document-units="px"
     inkscape:current-layer="layer1"
     showgrid="false"
     inkscape:window-width="1855"
     inkscape:window-height="1056"
     inkscape:window-x="65"
     inkscape:window-y="24"
     inkscape:window-maximized="1" />
  <metadata
     id="metadata7">
    <rdf:RDF>
      <cc:Work
         rdf:about="">
        <dc:format>image/svg+xml</dc:format>
        <dc:type
           rdf:resource="http://purl.org/dc/dcmitype/StillImage" />
        <dc:title></dc:title>
      </cc:Work>
    </rdf:RDF>
  </metadata>
  <g
     inkscape:label="Layer 1"
     inkscape:groupmode="layer"
     id="layer1">
    <path
       sodipodi:type="arc"
       style="fill:#890000;fill-opacity:1;stroke:none"
       id="path3066"
       sodipodi:cx="336.42856"
       sodipodi:cy="328.07648"
       sodipodi:rx="166.42857"
       sodipodi:ry="166.42857"
       d="m 502.85713,328.07648 a 166.42857,166.42857 0 1 1 -332.85715,0 166.42857,166.42857 0 1 1 332.85715,0 z"
       transform="matrix(1.0665236,0,0,1.0665236,-23.451869,-21.467686)" />
    <path
       sodipodi:type="arc"
       style="fill:#ffffff;fill-opacity:1;stroke:none"
       id="path3846"
       sodipodi:cx="343.92856"
       sodipodi:cy="349.86218"
       sodipodi:rx="130.35715"
       sodipodi:ry="130.35715"
       d="m 474.28571,349.86218 a 130.35715,130.35715 0 1 1 -260.7143,0 130.35715,130.35715 0 1 1 260.7143,0 z"
       transform="matrix(1.030137,0,0,1.030137,-20.722113,-30.900934)" />
    <path
       sodipodi:type="arc"
       style="fill:#890000;fill-opacity:1;stroke:none"
       id="path3838"
       sodipodi:cx="393.9595"
       sodipodi:cy="262.92798"
       sodipodi:rx="20.708128"
       sodipodi:ry="20.708128"
       d="m 414.66763,262.92798 a 20.708128,20.708128 0 1 1 -41.41625,0 20.708128,20.708128 0 1 1 41.41625,0 z"
       transform="matrix(1.0609756,0,0,1.0609756,-25.284611,-17.294884)" />
    <path
       style="fill:none;stroke:#000000;stroke-width:1px;stroke-linecap:butt;stroke-linejoin:miter;stroke-opacity:1"
       d="m 354.64286,218.79075 c 0.71428,-0.23809 1.42857,-0.47619 2.14285,-0.71428 l -40,155 106.07143,-0.35715 -12.14285,45.35715 -151.07143,0.35714 52.85714,-200.71429 43.92857,0.71429"
       id="path3842"
       inkscape:connector-curvature="0" />
    <path
       style="fill:#890000;fill-opacity:1;stroke:#000000;stroke-opacity:1;stroke-width:0;stroke-miterlimit:4;stroke-dasharray:none"
       d="m 262.9147,409.48439 c 1.17158,-4.41965 12.95859,-49.11979 26.19335,-99.33365 l 24.0632,-91.29793 20.27902,0.0686 c 11.15346,0.0378 20.65969,0.3004 21.12496,0.58365 0.61192,0.37252 -4.51976,21.26292 -18.55009,75.51499 -10.66781,41.25 -19.62281,75.90443 -19.9,77.00984 l -0.50398,2.00985 52.88241,-0.22413 c 29.08532,-0.12327 52.88231,0.0477 52.88219,0.37998 -1.9e-4,0.5036 -9.97859,38.1527 -11.15128,42.07446 -0.35288,1.1801 -4.5418,1.25 -74.91186,1.25 l -74.53808,0 2.13016,-8.03571 z"
       id="path3848"
       inkscape:connector-curvature="0" />
  </g>
</svg>
