<?xml version="1.0" encoding="iso-8859-1"?>
<!-- Generator: Adobe Illustrator 18.1.1, SVG Export Plug-In . SVG Version: 6.00 Build 0)  -->
<svg version="1.1" id="Capa_1" xmlns="http://www.w3.org/2000/svg" xmlns:xlink="http://www.w3.org/1999/xlink" x="0px" y="0px"
	 viewBox="0 0 16 16" style="enable-background:new 0 0 16 16;" xml:space="preserve">
<g>
	<g>
		<path style="fill:#5C94FC;" d="M13,12c0.118,0,0.234,0.025,0.348,0.068c0.131,0.049,0.254,0.119,0.359,0.225l1.993,1.993
			C15.887,13.894,16,13.462,16,13c0-1.588-1.236-2.874-2.798-2.98L13,10c-0.366,0-0.713,0.075-1.037,0.195L5.805,4.037
			C5.925,3.713,6,3.366,6,3L5.98,2.798C5.874,1.237,4.588,0,3,0C2.538,0,2.105,0.113,1.714,0.3l1.993,1.993
			c0.105,0.105,0.177,0.229,0.225,0.36c0.131,0.355,0.06,0.768-0.225,1.054C3.512,3.902,3.256,4,3,4
			C2.882,4,2.765,3.974,2.653,3.932c-0.131-0.049-0.255-0.12-0.36-0.225L0.3,1.714C0.113,2.105,0,2.538,0,3
			c0,1.588,1.237,2.874,2.798,2.98L3,6c0.366,0,0.713-0.075,1.037-0.195l6.158,6.158C10.075,12.287,10,12.634,10,13l0.02,0.202
			C10.126,14.764,11.413,16,13,16c0.462,0,0.895-0.113,1.286-0.3l-1.993-1.993c-0.105-0.105-0.177-0.229-0.225-0.359
			c-0.131-0.354-0.062-0.769,0.225-1.055C12.488,12.098,12.744,12,13,12z"/>
	</g>
</g>
<g>
</g>
<g>
</g>
<g>
</g>
<g>
</g>
<g>
</g>
<g>
</g>
<g>
</g>
<g>
</g>
<g>
</g>
<g>
</g>
<g>
</g>
<g>
</g>
<g>
</g>
<g>
</g>
<g>
</g>
</svg>
