<svg xmlns="http://www.w3.org/2000/svg" width="250" height="57" viewBox="0 0 260.879 59.015" shape-rendering="geometricPrecision" text-rendering="geometricPrecision" image-rendering="optimizeQuality" fill-rule="evenodd" clip-rule="evenodd"><defs><style>.fil0{fill:#000}</style></defs><g id="logot"><path class="fil0" d="M181.462 37.012c0 1.313-1.05 2.39-2.363 2.39a2.401 2.401 0 0 1-2.39-2.39 2.4 2.4 0 0 1 2.39-2.39c1.314 0 2.363 1.077 2.363 2.39zM190.094 39.053h-2.012l-5.453-14.492h2.1l3.617 10.178c.319.93.553 1.63.787 2.476h.028c.234-.786.496-1.574.787-2.389l3.704-10.265h2.013l-5.571 14.492zM208.961 38.41c-1.488.527-3.095.877-4.782.877-4.288 0-6.591-2.334-6.591-7.436 0-4.315 2.332-7.524 6.27-7.524 3.965 0 5.569 2.71 5.569 5.831 0 .76-.058 1.4-.058 1.4h-9.858c-.087 4.289 1.604 6.184 4.93 6.184 1.399 0 2.8-.265 4.227-.79l.293 1.458zm-1.488-8.222c.059-2.8-1.37-4.403-3.733-4.403-2.157 0-3.79 1.515-4.139 4.403h7.872zM220.507 26.134c-3.296-.525-4.87 2.1-4.87 7.147v5.772H213.8V24.559h1.866c0 1.02-.116 2.507-.378 3.792l.06.03c.552-2.157 2.069-4.433 5.246-4.025l-.087 1.778zM229.877 39.053s-.876.205-1.897.205c-2.566 0-3.586-1.166-3.586-3.82V17.765h1.838v17.411c0 1.777.553 2.51 2.07 2.51.786 0 1.575-.176 1.575-.176v1.543zM241.813 39.053c0-1.167.028-2.33.175-3.176l-.059-.032c-.7 1.897-2.594 3.442-5.131 3.442-2.247 0-3.938-1.427-3.938-3.761 0-2.89 3.061-4.902 8.923-4.902v-.962c0-2.537-.816-3.846-3.412-3.846-1.399 0-3.062.437-4.403 1.02l-.35-1.489c1.488-.583 3.208-1.02 4.958-1.02 3.762 0 5.044 1.984 5.044 5.047v5.19c0 1.488.029 3.178.06 4.489h-1.867zm-.03-7.027c-5.481 0-7.057 1.576-7.057 3.207 0 1.458.992 2.54 2.537 2.54 2.712 0 4.52-2.744 4.52-5.311v-.436zM258.108 26.018c.787.874 1.195 2.013 1.195 3.238 0 2.974-1.982 5.334-5.715 5.334a7.145 7.145 0 0 1-1.81-.23c-.727.438-1.077.962-1.077 1.426 0 .73.64 1.2 2.392 1.256l2.506.088c3.646.118 5.28 1.75 5.28 4.226 0 3.121-2.859 5.252-7.29 5.252-3.733 0-6.039-1.576-6.039-4.318 0-1.777 1.197-3.235 2.568-4.142-.846-.437-1.283-1.136-1.283-2.04 0-.873.524-1.72 1.515-2.361-1.458-.933-2.129-2.48-2.129-4.084 0-2.945 2.013-5.337 5.717-5.337.64 0 1.283.087 1.866.235h4.87v1.457h-2.566zm-6.384 12.626c-1.49.905-2.248 2.1-2.248 3.357 0 2.04 1.75 3.119 4.403 3.119 3.383 0 5.103-1.489 5.103-3.53 0-1.66-1.05-2.71-3.879-2.797l-2.535-.088c-.322 0-.582-.03-.844-.06m2.04-12.89c-2.334 0-3.705 1.576-3.705 3.704 0 2.13 1.37 3.706 3.704 3.706 2.332 0 3.702-1.577 3.702-3.706 0-2.128-1.37-3.703-3.702-3.703zM83.91 39.081c0-.726.058-1.66.174-2.45h-.058c-.757 1.605-2.36 2.745-4.577 2.745-3.53 0-5.278-2.655-5.278-6.796 0-4.899 2.856-8.282 7.67-8.282.611 0 1.194.03 1.835.117v-3.79a28.76 28.76 0 0 0-2.537-.292v-2.335c1.838-.232 4.111-.32 6.24-.262v18.458c.7.119 1.665.237 2.393.293v2.332c-1.692.236-3.936.324-5.863.262m-.233-11.603a9.112 9.112 0 0 0-1.952-.234c-2.13 0-3.646 1.34-3.646 4.927 0 2.714.787 4.11 2.478 4.11 1.955 0 3.12-2.27 3.12-4.752v-4.051zM99.48 39.258c-.7 0-1.255-.028-1.867-.115v4.77c.874.058 1.78.205 2.538.351v2.362H91.55v-2.362c.758-.146 1.485-.293 2.36-.35V27.419c-.7-.117-1.544-.234-2.36-.292v-2.334c1.777-.232 3.936-.32 5.831-.262 0 .7-.059 1.693-.174 2.451h.057c.819-1.69 2.363-2.713 4.578-2.713 3.412 0 5.28 2.48 5.28 6.764 0 5.046-2.625 8.225-7.64 8.225m1.253-11.927c-1.954 0-3.121 2.275-3.121 4.753v4.025c.583.175 1.198.263 1.955.263 2.127 0 3.645-1.342 3.645-4.929 0-2.71-.79-4.112-2.48-4.112zM121.018 39.081c0-.668.03-1.777.175-2.592l-.058-.032c-.846 1.722-2.538 2.92-4.899 2.92-3.295 0-4.344-2.1-4.344-4.64v-7.319c-.7-.115-1.665-.233-2.509-.29v-2.334c1.923-.235 4.228-.322 6.241-.262v9.303c0 1.514.408 2.42 1.778 2.42 1.896 0 3.383-2.159 3.383-4.695v-7h3.703v11.635c.7.12 1.69.236 2.539.294v2.33c-1.84.234-4.083.321-6.009.262zM169.951 39.343c-3.209 0-4.199-1.164-4.199-4.547v-7.35h-2.509V24.56h2.51V20.1l3.702-.992v5.452h3.529v2.887h-3.53v6.36c0 1.864.437 2.388 1.723 2.388.611 0 1.165-.056 1.66-.2l.263 2.945c-.933.23-2.129.404-3.149.404zM160.233 36.315l-3.905-5.135 5.102-6.62h-4.55l-4.226 6.036V17.738c-2.16-.058-4.404.03-6.271.262v2.332c.844.06 1.835.174 2.538.294v18.427h3.733v-6.624l4.808 6.624h4.842v-2.421a18.8 18.8 0 0 0-2.071-.317zM143.68 36.315v-7.438c0-2.538-1.05-4.636-4.316-4.636-2.362 0-4.053 1.195-4.928 2.915l-.029-.03c.146-.757.203-1.894.203-2.594-1.952-.058-4.198.03-6.037.262v2.332c.846.059 1.84.175 2.538.294v11.633h3.704v-6.997c0-2.538 1.486-4.696 3.383-4.696 1.37 0 1.778.905 1.778 2.42l-.006 9.273h6.064v-2.36a13.326 13.326 0 0 0-2.354-.378z"/><path fill="#ce4232" d="M0 .001h59.015v59.014H0z"/><path class="fil0" d="M45.737 6.787l6.627-.003-.002 45.65H30.778v6.575l28.236.005V0H45.734z"/><path class="fil0" d="M15.264 19.163l.002 25.41h6.72l-.001-18.591h21.657v-6.82z"/><path class="fil0" d="M30.778 31.56h12.864v13.01H30.778z"/></g></svg>