<?xml version="1.0" encoding="UTF-8" standalone="no"?>
<!-- Created with Inkscape (http://www.inkscape.org/) -->

<svg
   width="218.04849mm"
   height="51.661491mm"
   viewBox="0 0 218.04849 51.661491"
   version="1.1"
   id="svg1"
   inkscape:version="1.4.2 (ebf0e940d0, 2025-05-08)"
   sodipodi:docname="itdesign.svg"
   xmlns:inkscape="http://www.inkscape.org/namespaces/inkscape"
   xmlns:sodipodi="http://sodipodi.sourceforge.net/DTD/sodipodi-0.dtd"
   xmlns="http://www.w3.org/2000/svg"
   xmlns:svg="http://www.w3.org/2000/svg">
  <sodipodi:namedview
     id="namedview1"
     pagecolor="#ffffff"
     bordercolor="#000000"
     borderopacity="0.25"
     inkscape:showpageshadow="2"
     inkscape:pageopacity="0.0"
     inkscape:pagecheckerboard="0"
     inkscape:deskcolor="#d1d1d1"
     inkscape:document-units="mm"
     inkscape:zoom="0.76855096"
     inkscape:cx="383.83922"
     inkscape:cy="87.827617"
     inkscape:window-width="1251"
     inkscape:window-height="1300"
     inkscape:window-x="1285"
     inkscape:window-y="76"
     inkscape:window-maximized="0"
     inkscape:current-layer="g2" />
  <defs
     id="defs1">
    <linearGradient
       id="paint0_linear_2308_38381-6862ddfc7de36"
       x1="21.9401"
       y1="73.160004"
       x2="76.010101"
       y2="19.09"
       gradientUnits="userSpaceOnUse"
       gradientTransform="matrix(0.26458333,0,0,0.26458333,217.22292,126.20625)">
      <stop
         stop-color="#8C0023"
         id="stop4" />
      <stop
         offset="1"
         stop-color="#FF0040"
         id="stop5" />
    </linearGradient>
    <linearGradient
       id="paint1_linear_2308_38381-6862ddfc7de36"
       x1="119.03"
       y1="96.580002"
       x2="80.5401"
       y2="135.06"
       gradientUnits="userSpaceOnUse"
       gradientTransform="matrix(0.26458333,0,0,0.26458333,217.22292,126.20625)">
      <stop
         stop-color="#8C0023"
         id="stop6" />
      <stop
         offset="1"
         stop-color="#FF0040"
         id="stop7" />
    </linearGradient>
  </defs>
  <g
     inkscape:label="Ebene 1"
     inkscape:groupmode="layer"
     id="layer1"
     transform="translate(4.0242419,-122.66925)">
    <style
       id="style1">[data-color-scheme=&quot;highlight&quot;] .wordmark,
			html[data-color-scheme=&quot;dark&quot;] .wordmark {
				fill: #fff;
			}

			html[data-color-scheme=&quot;dark&quot;] [data-color-scheme=&quot;highlight&quot;] .wordmark {
				fill: #262626;
			}</style>
    <g
       id="g2"
       transform="translate(-302.077,-0.19583699)">
      <g
         id="g1"
         transform="matrix(1.1485648,0,0,1.1485648,48.558905,-22.090965)">
        <path
           d="m 238.54836,132.75469 c 0,2.37066 -0.90223,4.74133 -2.71198,6.54843 l -9.35302,9.35303 c -3.61685,-3.61686 -3.61685,-9.47738 0,-13.09423 l 9.35302,-9.35567 c 1.80975,1.8071 2.71198,4.17777 2.71198,6.54844 z"
           fill="url(#paint0_linear_2308_38381-6862ddfc7de36)"
           id="path1"
           style="fill:url(#paint0_linear_2308_38381-6862ddfc7de36);stroke-width:0.264583" />
        <path
           d="m 245.22642,161.798 -0.0344,0.0344 -9.35564,9.35302 c -1.80711,-1.8071 -2.71198,-4.17777 -2.71198,-6.54844 0,-2.37066 0.90487,-4.74133 2.71198,-6.54843 l 9.35564,-9.35303 c 3.60627,3.60628 3.61685,9.44298 0.0344,13.06248 z"
           fill="url(#paint1_linear_2308_38381-6862ddfc7de36)"
           id="path2"
           style="fill:url(#paint1_linear_2308_38381-6862ddfc7de36);stroke-width:0.264583" />
        <path
           d="m 245.22642,161.798 6.51404,-6.51404 c 3.61685,-3.61686 3.61685,-9.48 0,-13.09688 l -8.43762,-8.43756 c -3.61682,3.61688 -3.61682,9.48002 0,13.09688 l 1.88918,1.88912 c 3.60627,3.60627 3.61685,9.44298 0.0344,13.06248 z"
           fill="#ff0040"
           id="path3"
           style="stroke-width:0.264583" />
        <path
           d="m 219.9349,155.20458 8.43758,8.43757 c 3.61686,-3.61421 3.61686,-9.47738 0,-13.09423 0,0 1.72776,1.72508 -1.88915,-1.89177 -3.61682,-3.61689 -3.61682,-9.47738 0,-13.09423 l -6.54843,6.54843 c -3.61684,3.61421 -3.61684,9.48 0,13.09423 z"
           fill="#ff0040"
           id="path4"
           style="stroke-width:0.264583" />
      </g>
      <path
         class="wordmark"
         d="m 352.42474,130.55072 h 4.84452 v 3.96875 h -4.84452 z m 0,7.9375 h 4.84452 v 21.16667 h -4.84452 z m 8.20208,0.0238 h 3.74915 v -7.96131 h 4.84452 v 7.96131 h 7.30515 v 3.94494 h -7.30515 v 10.67329 c 0,1.48431 0.58473,3.08504 3.39725,3.08504 0.93927,0 2.8919,-0.23548 4.14338,-0.58737 v 4.25979 c -2.3839,0.31221 -3.51632,0.46831 -5.23611,0.46831 -4.60904,0 -7.14904,-1.48431 -7.14904,-6.09335 v -11.8057 h -3.74915 z m 37.61846,18.44675 c -1.09273,1.05569 -3.51366,3.39725 -8.3185,3.39725 -5.93725,0 -11.05694,-4.21746 -11.05694,-11.32946 0,-6.36852 4.33653,-11.05429 11.25009,-11.05429 4.02431,0 5.97694,1.40758 8.04598,2.8919 v -10.31346 h 4.84452 v 29.10417 h -4.76515 z m -0.0794,-11.95388 c -1.48431,-1.21179 -3.47662,-2.88925 -6.99294,-2.88925 -3.70945,0 -7.38187,2.34421 -7.38187,7.06967 0,4.72546 3.47662,7.03263 7.22577,7.03263 3.32052,0 5.27579,-1.60073 7.14904,-3.048 z m 31.95373,8.35819 c -0.35189,1.71979 -3.16442,6.99294 -10.93787,6.99294 -7.77346,0 -11.99357,-4.68842 -11.99357,-11.25008 0,-5.93725 3.90525,-11.13367 11.64167,-11.13367 7.88988,0.0794 11.68135,4.96094 11.68135,12.5386 h -18.3991 c 0.1958,1.32821 0.93663,5.70442 6.91357,5.93725 3.048,0 5.07735,-1.44462 5.78114,-3.08768 h 5.31284 z m -4.76514,-6.59871 c -0.74084,-3.556 -3.16442,-4.8842 -6.64105,-4.8842 -2.54,0 -5.46893,0.85989 -6.44789,4.8842 z m 24.97931,-1.73037 c -0.74349,-0.97631 -2.42094,-3.28083 -6.8342,-3.28083 -3.51895,0 -4.68841,1.36789 -4.68841,2.54 0,1.64041 2.02936,1.91293 4.92125,2.30452 5.74146,0.74348 10.97757,1.60073 10.97757,6.79714 0,6.17273 -7.07232,6.87652 -10.46957,6.87652 -7.22577,0 -9.4906,-2.88925 -11.28977,-5.11704 l 4.10104,-2.38389 c 1.6801,2.73579 4.60904,3.59568 7.6544,3.59568 2.57969,0 4.9239,-0.78052 4.9239,-2.61673 0,-1.60073 -1.17475,-1.75683 -6.33148,-2.46062 -7.92957,-1.016 -9.56998,-3.556 -9.56998,-6.75746 0,-2.18546 1.71979,-6.68073 9.88483,-6.68073 2.38125,0 7.57767,0.54769 10.74209,4.96094 l -4.02432,2.22779 z m 8.37405,-6.54579 h 4.84188 v 21.16667 h -4.84188 z m 33.17081,3.58775 c -0.42862,-0.11906 -1.20914,-0.39158 -1.75683,-0.31221 -0.54769,0 -1.24883,0.23283 -1.56104,0.38894 0.31221,0.43127 0.97631,1.6801 0.97631,3.47662 0,5.70442 -5.07735,7.73377 -10.62567,7.73377 -1.95527,0 -3.47662,-0.3122 -4.41589,-0.6641 -0.54769,0.3519 -1.32821,0.93927 -1.32821,1.6801 0,0.74084 0.46831,1.24884 4.68842,1.2118 h 6.60135 c 4.72546,0.1561 7.46125,1.524 7.46125,4.80483 0,5.00062 -7.30514,6.44525 -13.63398,6.44525 -5.85787,0 -10.93787,-1.1721 -10.93787,-4.64873 0,-2.50031 2.22514,-2.85221 4.2201,-3.24379 v -0.0794 c -1.79917,-0.15611 -3.16442,-1.13242 -3.16442,-3.24115 0,-2.10873 1.99232,-3.7121 3.67242,-3.94493 v -0.0794 c -2.34421,-1.28853 -3.47662,-3.36021 -3.47662,-6.01663 0,-6.17008 5.66473,-7.61735 10.82145,-7.61735 3.66978,0 5.82084,0.93662 7.26546,1.91293 0.74348,-0.78052 2.30452,-2.26483 4.4159,-2.26483 h 0.78052 v 4.45558 z m -16.44385,17.85144 c -1.13506,0 -2.77548,0.31221 -2.77548,1.524 0,1.71714 2.26748,1.91558 6.09335,1.91558 3.82588,0 7.85284,-0.43127 7.85284,-2.10873 0,-1.44462 -0.8599,-1.36789 -6.21242,-1.32821 h -4.96094 z m 9.3345,-14.29809 c 0,-3.12473 -3.20146,-4.064 -5.78115,-4.064 -2.57968,0 -5.62504,0.93663 -5.62504,4.10105 0,3.16441 3.00831,4.10368 5.58536,4.10368 2.57704,0 5.81818,-1.05568 5.81818,-4.14073 z m 15.2744,-7.1411 v 2.80723 c 1.52664,-1.48431 3.59568,-3.32052 7.85283,-3.32052 4.25714,0 8.20473,1.83621 8.20473,8.24177 v 13.43819 h -4.84717 v -11.64431 c 0,-4.13808 -1.24883,-5.89756 -4.49262,-5.89756 -3.86821,0 -5.42925,1.60073 -6.64105,3.08504 v 14.45419 h -4.84452 v -21.16402 z m -41.33586,-7.93485 h 4.84452 v 3.9661 h -4.84452 z"
         fill="#262626"
         id="path1-0"
         style="stroke-width:0.264583;fill:#1c1c1c;fill-opacity:1" />
    </g>
  </g>
</svg>
