<?xml version="1.0" encoding="UTF-8" standalone="no"?>
<!DOCTYPE svg PUBLIC "-//W3C//DTD SVG 1.1//EN" "http://www.w3.org/Graphics/SVG/1.1/DTD/svg11.dtd">
<svg width="100%" height="100%" viewBox="0 0 1175 194" version="1.1" xmlns="http://www.w3.org/2000/svg" xmlns:xlink="http://www.w3.org/1999/xlink" xml:space="preserve" xmlns:serif="http://www.serif.com/" style="fill-rule:evenodd;clip-rule:evenodd;stroke-linejoin:round;stroke-miterlimit:2;">
    <g transform="matrix(1,0,0,1,0,-2500)">
        <g transform="matrix(1,0,0,1.56449,-5008.33,2500)">
            <g id="science---computing-Logo-with-Tagline---color" serif:id="science + computing Logo with Tagline - color">
                <g transform="matrix(0.723338,0,0,0.462394,4418.22,-121.223)">
                    <g id="science---computing-Logo" serif:id="science + computing Logo">
                        <g>
                            <path d="M853.636,395.599C846.884,395.599 840.712,394.491 835.121,392.276C829.529,390.06 825.046,386.79 821.67,382.464C818.294,378.139 816.342,372.759 815.815,366.323L834.488,366.323C835.015,371.493 837.099,375.159 840.739,377.321C844.378,379.484 848.783,380.565 853.952,380.565C859.122,380.565 863.131,379.537 865.979,377.48C868.828,375.422 870.252,372.653 870.252,369.172C870.252,366.429 869.487,364.371 867.957,363C866.428,361.628 864.397,360.573 861.865,359.835C859.333,359.097 856.484,358.464 853.319,357.936L846.198,356.828C842.822,356.301 839.473,355.562 836.149,354.613C832.826,353.663 829.793,352.265 827.05,350.419C824.307,348.573 822.092,346.067 820.404,342.902C818.716,339.738 817.872,335.676 817.872,330.717C817.872,325.337 819.296,320.669 822.145,316.712C824.993,312.756 828.976,309.618 834.092,307.297C839.209,304.976 845.196,303.815 852.053,303.815C859.016,303.815 865.03,305.029 870.094,307.455C875.158,309.881 879.087,313.205 881.883,317.425C884.679,321.645 886.235,326.392 886.551,331.667L868.195,331.667C868.089,329.346 867.377,327.21 866.058,325.258C864.74,323.306 862.893,321.75 860.52,320.59C858.146,319.429 855.218,318.849 851.737,318.849C847.2,318.849 843.534,319.798 840.739,321.697C837.943,323.596 836.545,326.234 836.545,329.61C836.545,332.036 837.257,333.935 838.681,335.307C840.106,336.678 841.978,337.733 844.299,338.472C846.62,339.21 849.152,339.79 851.895,340.212L859.966,341.637C863.764,342.269 867.403,343.087 870.885,344.089C874.366,345.092 877.452,346.542 880.142,348.441C882.833,350.34 884.995,352.819 886.63,355.879C888.266,358.938 889.083,362.842 889.083,367.589C889.083,373.181 887.659,378.086 884.811,382.306C881.962,386.526 877.9,389.797 872.626,392.118C867.351,394.438 861.021,395.599 853.636,395.599Z" style="fill:rgb(0,40,112);fill-rule:nonzero;"/>
                            <path d="M944.312,395.599C937.876,395.599 931.889,394.412 926.351,392.038C920.812,389.665 915.959,386.368 911.792,382.148C907.625,377.928 904.354,373.049 901.981,367.51C899.607,361.971 898.42,356.037 898.42,349.707C898.42,343.377 899.607,337.443 901.981,331.904C904.354,326.366 907.625,321.486 911.792,317.266C915.959,313.046 920.812,309.75 926.351,307.376C931.889,305.002 937.824,303.815 944.154,303.815C951.855,303.815 958.818,305.371 965.042,308.484C971.267,311.596 976.462,315.869 980.63,321.302C984.797,326.735 987.461,332.986 988.621,340.054L969.473,340.054C967.785,334.252 964.699,329.715 960.216,326.445C955.732,323.174 950.483,321.539 944.47,321.539C939.723,321.539 935.371,322.726 931.415,325.1C927.458,327.473 924.293,330.77 921.92,334.99C919.546,339.21 918.359,344.116 918.359,349.707C918.359,355.299 919.546,360.231 921.92,364.503C924.293,368.776 927.458,372.099 931.415,374.473C935.371,376.847 939.723,378.033 944.47,378.033C950.272,378.033 955.205,376.688 959.266,373.998C963.328,371.308 966.414,367.378 968.524,362.209L987.83,362.209C986.353,368.855 983.584,374.684 979.522,379.695C975.46,384.706 970.423,388.61 964.409,391.405C958.396,394.201 951.697,395.599 944.312,395.599Z" style="fill:rgb(0,40,112);fill-rule:nonzero;"/>
                            <path d="M1025.81,305.398L1025.81,394.017L1006.66,394.017L1006.66,305.398L1025.81,305.398ZM1006.66,275.331L1025.81,275.331L1025.81,298.751L1006.66,298.751L1006.66,275.331Z" style="fill:rgb(0,40,112);fill-rule:nonzero;"/>
                            <path d="M1088.63,395.599C1081.67,395.599 1075.37,394.438 1069.72,392.118C1064.08,389.797 1059.2,386.552 1055.09,382.385C1050.97,378.218 1047.81,373.286 1045.59,367.589C1043.38,361.892 1042.27,355.668 1042.27,348.916C1042.27,342.797 1043.4,337.021 1045.67,331.588C1047.94,326.155 1051.15,321.354 1055.32,317.187C1059.49,313.02 1064.34,309.75 1069.88,307.376C1075.42,305.002 1081.51,303.815 1088.16,303.815C1096.7,303.815 1104.22,305.556 1110.71,309.037C1117.2,312.519 1122.24,317.425 1125.82,323.755C1129.41,330.084 1131.2,337.522 1131.2,346.067C1131.2,347.439 1131.15,348.784 1131.04,350.103C1130.94,351.421 1130.83,352.767 1130.73,354.138L1062.21,354.138C1062.63,357.514 1063.47,360.679 1064.74,363.633C1066.85,368.169 1069.93,371.809 1074,374.552C1078.06,377.295 1083.1,378.666 1089.11,378.666C1094.91,378.666 1099.79,377.559 1103.75,375.343C1107.7,373.128 1110.63,369.752 1112.53,365.215L1131.68,365.215C1130.1,371.123 1127.35,376.372 1123.45,380.961C1119.55,385.55 1114.66,389.137 1108.81,391.722C1102.95,394.307 1096.23,395.599 1088.63,395.599ZM1112.53,341.162C1112.32,337.68 1111.37,334.515 1109.68,331.667C1107.89,328.396 1105.17,325.785 1101.53,323.834C1097.89,321.882 1093.49,320.906 1088.32,320.906C1083.36,320.906 1078.88,322.04 1074.87,324.308C1070.86,326.577 1067.64,329.768 1065.21,333.882C1063.95,336.098 1063.05,338.524 1062.52,341.162L1112.53,341.162Z" style="fill:rgb(0,40,112);fill-rule:nonzero;"/>
                            <path d="M1166.65,394.017L1147.66,394.017L1147.66,305.398L1166.65,305.398L1166.65,315.526C1167.28,314.682 1167.97,313.838 1168.71,312.994C1171.24,310.251 1174.33,308.035 1177.96,306.347C1181.6,304.659 1185.8,303.815 1190.55,303.815C1196.45,303.815 1201.6,305.055 1205.97,307.534C1210.35,310.013 1213.73,313.548 1216.1,318.137C1218.48,322.726 1219.66,328.238 1219.66,334.674L1219.66,394.017L1200.67,394.017L1200.67,340.054C1200.67,334.041 1199.2,329.583 1196.24,326.682C1193.29,323.781 1189.33,322.33 1184.37,322.33C1180.89,322.33 1177.83,323.095 1175.19,324.625C1172.56,326.155 1170.47,328.37 1168.94,331.271C1167.41,334.172 1166.65,337.575 1166.65,341.478L1166.65,394.017Z" style="fill:rgb(0,40,112);fill-rule:nonzero;"/>
                            <path d="M1280.43,395.599C1274,395.599 1268.01,394.412 1262.47,392.038C1256.93,389.665 1252.08,386.368 1247.91,382.148C1243.74,377.928 1240.47,373.049 1238.1,367.51C1235.73,361.971 1234.54,356.037 1234.54,349.707C1234.54,343.377 1235.73,337.443 1238.1,331.904C1240.47,326.366 1243.74,321.486 1247.91,317.266C1252.08,313.046 1256.93,309.75 1262.47,307.376C1268.01,305.002 1273.94,303.815 1280.27,303.815C1287.97,303.815 1294.94,305.371 1301.16,308.484C1307.38,311.596 1312.58,315.869 1316.75,321.302C1320.91,326.735 1323.58,332.986 1324.74,340.054L1305.59,340.054C1303.9,334.252 1300.82,329.715 1296.33,326.445C1291.85,323.174 1286.6,321.539 1280.59,321.539C1275.84,321.539 1271.49,322.726 1267.53,325.1C1263.58,327.473 1260.41,330.77 1258.04,334.99C1255.66,339.21 1254.48,344.116 1254.48,349.707C1254.48,355.299 1255.66,360.231 1258.04,364.503C1260.41,368.776 1263.58,372.099 1267.53,374.473C1271.49,376.847 1275.84,378.033 1280.59,378.033C1286.39,378.033 1291.32,376.688 1295.38,373.998C1299.45,371.308 1302.53,367.378 1304.64,362.209L1323.95,362.209C1322.47,368.855 1319.7,374.684 1315.64,379.695C1311.58,384.706 1306.54,388.61 1300.53,391.405C1294.51,394.201 1287.82,395.599 1280.43,395.599Z" style="fill:rgb(0,40,112);fill-rule:nonzero;"/>
                            <path d="M1379.65,395.599C1372.69,395.599 1366.38,394.438 1360.74,392.118C1355.1,389.797 1350.22,386.552 1346.1,382.385C1341.99,378.218 1338.82,373.286 1336.61,367.589C1334.39,361.892 1333.29,355.668 1333.29,348.916C1333.29,342.797 1334.42,337.021 1336.69,331.588C1338.95,326.155 1342.17,321.354 1346.34,317.187C1350.51,313.02 1355.36,309.75 1360.9,307.376C1366.44,305.002 1372.53,303.815 1379.18,303.815C1387.72,303.815 1395.24,305.556 1401.73,309.037C1408.21,312.519 1413.25,317.425 1416.84,323.755C1420.43,330.084 1422.22,337.522 1422.22,346.067C1422.22,347.439 1422.17,348.784 1422.06,350.103C1421.96,351.421 1421.85,352.767 1421.75,354.138L1353.22,354.138C1353.65,357.514 1354.49,360.679 1355.76,363.633C1357.87,368.169 1360.95,371.809 1365.01,374.552C1369.08,377.295 1374.11,378.666 1380.13,378.666C1385.93,378.666 1390.81,377.559 1394.76,375.343C1398.72,373.128 1401.65,369.752 1403.55,365.215L1422.69,365.215C1421.11,371.123 1418.37,376.372 1414.47,380.961C1410.56,385.55 1405.68,389.137 1399.83,391.722C1393.97,394.307 1387.25,395.599 1379.65,395.599ZM1403.55,341.162C1403.34,337.68 1402.39,334.515 1400.7,331.667C1398.9,328.396 1396.19,325.785 1392.55,323.834C1388.91,321.882 1384.5,320.906 1379.34,320.906C1374.38,320.906 1369.89,322.04 1365.88,324.308C1361.88,326.577 1358.66,329.768 1356.23,333.882C1354.96,336.098 1354.07,338.524 1353.54,341.162L1403.55,341.162Z" style="fill:rgb(0,40,112);fill-rule:nonzero;"/>
                            <path d="M1546.6,356.248L1516.22,356.248L1516.22,388.531L1499.76,388.531L1499.76,356.248L1469.38,356.248L1469.38,339.474L1499.76,339.474L1499.76,306.875L1516.22,306.875L1516.22,339.474L1546.6,339.474L1546.6,356.248Z" style="fill:rgb(255,85,57);fill-rule:nonzero;"/>
                            <path d="M1639.65,395.599C1633.22,395.599 1627.23,394.412 1621.69,392.038C1616.15,389.665 1611.3,386.368 1607.13,382.148C1602.97,377.928 1599.69,373.049 1597.32,367.51C1594.95,361.971 1593.76,356.037 1593.76,349.707C1593.76,343.377 1594.95,337.443 1597.32,331.904C1599.69,326.366 1602.97,321.486 1607.13,317.266C1611.3,313.046 1616.15,309.75 1621.69,307.376C1627.23,305.002 1633.16,303.815 1639.49,303.815C1647.19,303.815 1654.16,305.371 1660.38,308.484C1666.61,311.596 1671.8,315.869 1675.97,321.302C1680.14,326.735 1682.8,332.986 1683.96,340.054L1664.81,340.054C1663.13,334.252 1660.04,329.715 1655.56,326.445C1651.07,323.174 1645.82,321.539 1639.81,321.539C1635.06,321.539 1630.71,322.726 1626.76,325.1C1622.8,327.473 1619.63,330.77 1617.26,334.99C1614.89,339.21 1613.7,344.116 1613.7,349.707C1613.7,355.299 1614.89,360.231 1617.26,364.503C1619.63,368.776 1622.8,372.099 1626.76,374.473C1630.71,376.847 1635.06,378.033 1639.81,378.033C1645.61,378.033 1650.55,376.688 1654.61,373.998C1658.67,371.308 1661.75,367.378 1663.86,362.209L1683.17,362.209C1681.69,368.855 1678.92,374.684 1674.86,379.695C1670.8,384.706 1665.76,388.61 1659.75,391.405C1653.74,394.201 1647.04,395.599 1639.65,395.599Z" style="fill:rgb(0,40,112);fill-rule:nonzero;"/>
                            <path d="M1739.35,395.599C1732.91,395.599 1726.85,394.412 1721.15,392.038C1715.45,389.665 1710.47,386.394 1706.19,382.227C1701.92,378.06 1698.57,373.181 1696.15,367.589C1693.72,361.998 1692.51,356.037 1692.51,349.707C1692.51,343.377 1693.72,337.443 1696.15,331.904C1698.57,326.366 1701.92,321.486 1706.19,317.266C1710.47,313.046 1715.45,309.75 1721.15,307.376C1726.85,305.002 1732.91,303.815 1739.35,303.815C1745.78,303.815 1751.82,305.002 1757.47,307.376C1763.11,309.75 1768.07,313.046 1772.34,317.266C1776.62,321.486 1779.97,326.366 1782.39,331.904C1784.82,337.443 1786.03,343.377 1786.03,349.707C1786.03,356.037 1784.82,361.998 1782.39,367.589C1779.97,373.181 1776.62,378.06 1772.34,382.227C1768.07,386.394 1763.11,389.665 1757.47,392.038C1751.82,394.412 1745.78,395.599 1739.35,395.599ZM1739.35,377.875C1744.2,377.875 1748.68,376.688 1752.8,374.315C1756.91,371.941 1760.16,368.644 1762.53,364.424C1764.9,360.204 1766.09,355.299 1766.09,349.707C1766.09,344.116 1764.9,339.21 1762.53,334.99C1760.16,330.77 1756.91,327.473 1752.8,325.1C1748.68,322.726 1744.2,321.539 1739.35,321.539C1734.39,321.539 1729.88,322.726 1725.82,325.1C1721.76,327.473 1718.49,330.77 1716.01,334.99C1713.53,339.21 1712.29,344.116 1712.29,349.707C1712.29,355.299 1713.53,360.204 1716.01,364.424C1718.49,368.644 1721.76,371.941 1725.82,374.315C1729.88,376.688 1734.39,377.875 1739.35,377.875Z" style="fill:rgb(0,40,112);fill-rule:nonzero;"/>
                            <path d="M1821.48,394.017L1802.49,394.017L1802.49,305.398L1821.48,305.398L1821.48,315.367C1822.01,314.629 1822.59,313.89 1823.22,313.152C1825.65,310.303 1828.6,308.035 1832.08,306.347C1835.56,304.659 1839.57,303.815 1844.11,303.815C1849.7,303.815 1854.55,305.055 1858.67,307.534C1862.78,310.013 1866,313.574 1868.32,318.216C1868.43,318.321 1868.48,318.427 1868.48,318.532C1869.64,316.633 1870.96,314.787 1872.43,312.994C1874.97,310.251 1878.05,308.035 1881.69,306.347C1885.33,304.659 1889.53,303.815 1894.27,303.815C1899.86,303.815 1904.74,305.055 1908.91,307.534C1913.08,310.013 1916.3,313.548 1918.56,318.137C1920.83,322.726 1921.97,328.238 1921.97,334.674L1921.97,394.017L1902.98,394.017L1902.98,340.054C1902.98,334.041 1901.61,329.583 1898.86,326.682C1896.12,323.781 1892.53,322.33 1888.1,322.33C1884.94,322.33 1882.11,323.095 1879.63,324.625C1877.16,326.155 1875.23,328.37 1873.86,331.271C1872.49,334.172 1871.8,337.575 1871.8,341.478L1871.8,394.017L1852.65,394.017L1852.65,340.054C1852.65,334.041 1851.31,329.583 1848.62,326.682C1845.93,323.781 1842.32,322.33 1837.78,322.33C1834.61,322.33 1831.82,323.095 1829.39,324.625C1826.97,326.155 1825.04,328.37 1823.62,331.271C1822.19,334.172 1821.48,337.575 1821.48,341.478L1821.48,394.017Z" style="fill:rgb(0,40,112);fill-rule:nonzero;"/>
                            <path d="M1963.11,433.578L1944.12,433.578L1944.12,305.398L1963.11,305.398L1963.11,318.849L1964.38,317.266C1968.07,313.046 1972.45,309.75 1977.51,307.376C1982.58,305.002 1988.11,303.815 1994.13,303.815C2000.04,303.815 2005.52,305.002 2010.59,307.376C2015.65,309.75 2020.08,313.046 2023.88,317.266C2027.68,321.486 2030.68,326.366 2032.9,331.904C2035.11,337.443 2036.22,343.43 2036.22,349.865C2036.22,356.195 2035.11,362.13 2032.9,367.668C2030.68,373.207 2027.68,378.06 2023.88,382.227C2020.08,386.394 2015.65,389.665 2010.59,392.038C2005.52,394.412 2000.04,395.599 1994.13,395.599C1988.11,395.599 1982.58,394.412 1977.51,392.038C1972.45,389.665 1968.07,386.368 1964.38,382.148C1963.95,381.726 1963.53,381.198 1963.11,380.565L1963.11,433.578ZM1989.85,377.875C1994.81,377.875 1999.27,376.715 2003.23,374.394C2007.18,372.073 2010.35,368.776 2012.72,364.503C2015.1,360.231 2016.28,355.351 2016.28,349.865C2016.28,344.063 2015.1,339.078 2012.72,334.911C2010.35,330.744 2007.18,327.473 2003.23,325.1C1999.27,322.726 1994.81,321.539 1989.85,321.539C1984.9,321.539 1980.41,322.726 1976.4,325.1C1972.39,327.473 1969.18,330.744 1966.75,334.911C1964.32,339.078 1963.11,344.01 1963.11,349.707C1963.11,355.299 1964.32,360.231 1966.75,364.503C1969.18,368.776 1972.39,372.073 1976.4,374.394C1980.41,376.715 1984.9,377.875 1989.85,377.875Z" style="fill:rgb(0,40,112);fill-rule:nonzero;"/>
                            <path d="M2080.06,395.599C2074.04,395.599 2068.87,394.438 2064.55,392.118C2060.22,389.797 2056.9,386.341 2054.58,381.752C2052.26,377.163 2051.1,371.493 2051.1,364.741L2051.1,305.398L2070.09,305.398L2070.09,360.626C2070.09,364.424 2070.82,367.536 2072.3,369.963C2073.78,372.389 2075.68,374.183 2078,375.343C2080.32,376.504 2082.85,377.084 2085.59,377.084C2088.44,377.084 2091.21,376.477 2093.9,375.264C2096.59,374.051 2098.83,371.967 2100.63,369.013C2102.42,366.059 2103.32,361.998 2103.32,356.828L2103.32,305.398L2122.31,305.398L2122.31,394.017L2103.32,394.017L2103.32,384.363C2102.79,384.996 2102.21,385.629 2101.58,386.262C2098.73,389.216 2095.49,391.511 2091.85,393.146C2088.2,394.781 2084.28,395.599 2080.06,395.599Z" style="fill:rgb(0,40,112);fill-rule:nonzero;"/>
                            <path d="M2177.54,394.017C2169.73,394.017 2163.69,392.197 2159.42,388.557C2155.14,384.917 2153.01,379.405 2153.01,372.02L2153.01,322.172L2134.18,322.172L2134.18,305.398L2153.01,305.398L2153.01,275.331L2172,275.331L2172,305.398L2199.53,305.398L2199.53,322.172L2172,322.172L2172,367.114C2172,370.701 2172.82,373.312 2174.45,374.948C2176.09,376.583 2178.8,377.4 2182.6,377.4L2199.53,377.4L2199.53,394.017L2177.54,394.017Z" style="fill:rgb(0,40,112);fill-rule:nonzero;"/>
                            <path d="M2237.51,305.398L2237.51,394.017L2218.36,394.017L2218.36,305.398L2237.51,305.398ZM2218.36,275.331L2237.51,275.331L2237.51,298.751L2218.36,298.751L2218.36,275.331Z" style="fill:rgb(0,40,112);fill-rule:nonzero;"/>
                            <path d="M2280.24,394.017L2261.25,394.017L2261.25,305.398L2280.24,305.398L2280.24,315.526C2280.87,314.682 2281.56,313.838 2282.3,312.994C2284.83,310.251 2287.91,308.035 2291.55,306.347C2295.19,304.659 2299.39,303.815 2304.13,303.815C2310.04,303.815 2315.18,305.055 2319.56,307.534C2323.94,310.013 2327.32,313.548 2329.69,318.137C2332.07,322.726 2333.25,328.238 2333.25,334.674L2333.25,394.017L2314.26,394.017L2314.26,340.054C2314.26,334.041 2312.78,329.583 2309.83,326.682C2306.88,323.781 2302.92,322.33 2297.96,322.33C2294.48,322.33 2291.42,323.095 2288.78,324.625C2286.15,326.155 2284.06,328.37 2282.53,331.271C2281,334.172 2280.24,337.575 2280.24,341.478L2280.24,394.017Z" style="fill:rgb(0,40,112);fill-rule:nonzero;"/>
                            <path d="M2406.05,433.578L2366.8,433.578L2366.8,416.804L2401.3,416.804C2407.84,416.804 2412.8,415.09 2416.17,411.661C2419.55,408.232 2421.24,403.459 2421.24,397.34L2421.24,380.565C2420.82,381.198 2420.39,381.726 2419.97,382.148C2416.28,386.368 2411.9,389.665 2406.84,392.038C2401.77,394.412 2396.24,395.599 2390.22,395.599C2384.31,395.599 2378.85,394.412 2373.84,392.038C2368.83,389.665 2364.4,386.394 2360.55,382.227C2356.7,378.06 2353.67,373.207 2351.45,367.668C2349.24,362.13 2348.13,356.195 2348.13,349.865C2348.13,343.43 2349.24,337.443 2351.45,331.904C2353.67,326.366 2356.7,321.486 2360.55,317.266C2364.4,313.046 2368.83,309.75 2373.84,307.376C2378.85,305.002 2384.31,303.815 2390.22,303.815C2396.24,303.815 2401.77,305.002 2406.84,307.376C2411.9,309.75 2416.28,313.046 2419.97,317.266L2421.24,318.849L2421.24,305.398L2440.23,305.398L2440.23,401.138C2440.23,407.784 2438.91,413.534 2436.27,418.387C2433.63,423.24 2429.76,426.985 2424.64,429.622C2419.52,432.26 2413.33,433.578 2406.05,433.578ZM2394.49,377.875C2399.45,377.875 2403.96,376.715 2408.02,374.394C2412.09,372.073 2415.3,368.776 2417.68,364.503C2420.05,360.231 2421.24,355.299 2421.24,349.707C2421.24,344.116 2420.05,339.21 2417.68,334.99C2415.3,330.77 2412.09,327.473 2408.02,325.1C2403.96,322.726 2399.45,321.539 2394.49,321.539C2389.53,321.539 2385.05,322.726 2381.04,325.1C2377.03,327.473 2373.87,330.77 2371.55,334.99C2369.23,339.21 2368.07,344.168 2368.07,349.865C2368.07,355.351 2369.23,360.231 2371.55,364.503C2373.87,368.776 2377.03,372.073 2381.04,374.394C2385.05,376.715 2389.53,377.875 2394.49,377.875Z" style="fill:rgb(0,40,112);fill-rule:nonzero;"/>
                        </g>
                    </g>
                </g>
                <g transform="matrix(1.05813,0,0,0.676071,5036.64,-1683.43)">
                    <path d="M771.789,2672.94L769.037,2672.94L769.037,2666.89C768.537,2667.79 767.936,2668.62 767.236,2669.39C766.002,2670.69 764.584,2671.69 762.983,2672.39C761.382,2673.09 759.681,2673.44 757.879,2673.44C756.011,2673.44 754.277,2673.07 752.676,2672.34C751.075,2671.61 749.665,2670.59 748.448,2669.29C747.23,2667.99 746.271,2666.46 745.571,2664.71C744.87,2662.96 744.52,2661.07 744.52,2659.05C744.52,2657.04 744.87,2655.16 745.571,2653.43C746.271,2651.69 747.23,2650.17 748.448,2648.87C749.665,2647.57 751.075,2646.55 752.676,2645.82C754.277,2645.09 756.011,2644.72 757.879,2644.72C759.681,2644.72 761.382,2645.07 762.983,2645.77C764.584,2646.47 766.002,2647.47 767.236,2648.77C767.936,2649.54 768.537,2650.37 769.037,2651.27L769.037,2645.22L771.789,2645.22L771.789,2672.94ZM758.13,2670.74C760.131,2670.74 761.957,2670.25 763.608,2669.29C765.26,2668.32 766.577,2666.95 767.561,2665.18C768.545,2663.42 769.037,2661.38 769.037,2659.08C769.037,2656.71 768.545,2654.66 767.561,2652.93C766.577,2651.19 765.26,2649.84 763.608,2648.87C761.957,2647.91 760.131,2647.42 758.13,2647.42C756.195,2647.42 754.419,2647.91 752.801,2648.87C751.183,2649.84 749.882,2651.19 748.898,2652.93C747.914,2654.66 747.422,2656.71 747.422,2659.08C747.422,2661.41 747.914,2663.46 748.898,2665.21C749.882,2666.96 751.183,2668.32 752.801,2669.29C754.419,2670.25 756.195,2670.74 758.13,2670.74Z" style="fill:rgb(0,40,112);fill-rule:nonzero;"/>
                    <path d="M791.403,2672.94L791.403,2635.41L803.011,2635.41C805.012,2635.41 806.738,2635.8 808.189,2636.56C809.64,2637.33 810.766,2638.38 811.567,2639.72C812.367,2641.05 812.767,2642.6 812.767,2644.37C812.767,2646.3 812.267,2647.94 811.266,2649.27C810.266,2650.61 808.965,2651.52 807.364,2652.03L807.364,2652.93C809.265,2653.46 810.841,2654.53 812.092,2656.13C813.343,2657.73 813.968,2659.75 813.968,2662.18C813.968,2664.32 813.493,2666.19 812.542,2667.81C811.592,2669.43 810.249,2670.69 808.514,2671.59C806.78,2672.49 804.695,2672.94 802.26,2672.94L791.403,2672.94ZM802.11,2653.73L794.155,2653.73L794.155,2670.29L802.11,2670.29C804.912,2670.29 807.105,2669.57 808.69,2668.14C810.274,2666.7 811.066,2664.72 811.066,2662.18C811.066,2660.48 810.708,2659 809.99,2657.73C809.273,2656.46 808.239,2655.48 806.888,2654.78C805.537,2654.08 803.945,2653.73 802.11,2653.73ZM803.011,2638.07L794.155,2638.07L794.155,2651.07L803.511,2651.07C805.512,2651.07 807.08,2650.49 808.214,2649.32C809.348,2648.16 809.915,2646.58 809.915,2644.59C809.915,2642.61 809.315,2641.03 808.114,2639.84C806.913,2638.66 805.212,2638.07 803.011,2638.07Z" style="fill:rgb(0,40,112);fill-rule:nonzero;"/>
                    <path d="M829.429,2673.44C827.594,2673.44 825.993,2673.08 824.626,2672.36C823.258,2671.65 822.207,2670.57 821.473,2669.14C820.74,2667.7 820.373,2665.92 820.373,2663.78L820.373,2645.22L823.075,2645.22L823.075,2663.58C823.075,2665.18 823.383,2666.51 824,2667.56C824.617,2668.61 825.434,2669.39 826.452,2669.91C827.469,2670.43 828.578,2670.69 829.779,2670.69C831.047,2670.69 832.248,2670.4 833.382,2669.81C834.516,2669.23 835.45,2668.31 836.184,2667.06C836.917,2665.81 837.284,2664.2 837.284,2662.23L837.284,2645.22L839.986,2645.22L839.986,2672.94L837.284,2672.94L837.284,2668.79C837.051,2669.19 836.784,2669.55 836.484,2669.89C835.617,2671.02 834.582,2671.9 833.382,2672.51C832.181,2673.13 830.863,2673.44 829.429,2673.44Z" style="fill:rgb(0,40,112);fill-rule:nonzero;"/>
                    <rect x="849.293" y="2635.41" width="2.702" height="37.526" style="fill:rgb(0,40,112);fill-rule:nonzero;"/>
                    <rect x="861.301" y="2635.41" width="2.702" height="37.526" style="fill:rgb(0,40,112);fill-rule:nonzero;"/>
                    <path d="M886.268,2672.94L883.566,2672.94L883.566,2635.41L886.268,2635.41L886.268,2651.27C886.802,2650.37 887.419,2649.54 888.12,2648.77C889.32,2647.47 890.721,2646.47 892.322,2645.77C893.924,2645.07 895.625,2644.72 897.426,2644.72C899.294,2644.72 901.029,2645.09 902.63,2645.82C904.231,2646.55 905.648,2647.57 906.883,2648.87C908.117,2650.17 909.084,2651.69 909.785,2653.43C910.485,2655.16 910.835,2657.04 910.835,2659.05C910.835,2661.07 910.485,2662.96 909.785,2664.71C909.084,2666.46 908.117,2667.99 906.883,2669.29C905.648,2670.59 904.231,2671.61 902.63,2672.34C901.029,2673.07 899.294,2673.44 897.426,2673.44C895.625,2673.44 893.924,2673.09 892.322,2672.39C890.721,2671.69 889.32,2670.69 888.12,2669.39C887.419,2668.62 886.802,2667.79 886.268,2666.89L886.268,2672.94ZM897.176,2670.74C899.144,2670.74 900.937,2670.25 902.555,2669.29C904.172,2668.32 905.465,2666.95 906.432,2665.18C907.4,2663.42 907.883,2661.38 907.883,2659.08C907.883,2656.71 907.4,2654.66 906.432,2652.93C905.465,2651.19 904.172,2649.84 902.555,2648.87C900.937,2647.91 899.144,2647.42 897.176,2647.42C895.208,2647.42 893.398,2647.91 891.747,2648.87C890.096,2649.84 888.77,2651.2 887.769,2652.95C886.769,2654.7 886.268,2656.74 886.268,2659.08C886.268,2661.41 886.769,2663.46 887.769,2665.21C888.77,2666.96 890.096,2668.32 891.747,2669.29C893.398,2670.25 895.208,2670.74 897.176,2670.74Z" style="fill:rgb(0,40,112);fill-rule:nonzero;"/>
                    <path d="M925.896,2673.44C924.061,2673.44 922.46,2673.08 921.092,2672.36C919.725,2671.65 918.674,2670.57 917.94,2669.14C917.206,2667.7 916.839,2665.92 916.839,2663.78L916.839,2645.22L919.541,2645.22L919.541,2663.58C919.541,2665.18 919.85,2666.51 920.467,2667.56C921.084,2668.61 921.901,2669.39 922.919,2669.91C923.936,2670.43 925.045,2670.69 926.246,2670.69C927.514,2670.69 928.714,2670.4 929.848,2669.81C930.983,2669.23 931.917,2668.31 932.65,2667.06C933.384,2665.81 933.751,2664.2 933.751,2662.23L933.751,2645.22L936.453,2645.22L936.453,2672.94L933.751,2672.94L933.751,2668.79C933.518,2669.19 933.251,2669.55 932.951,2669.89C932.083,2671.02 931.049,2671.9 929.848,2672.51C928.648,2673.13 927.33,2673.44 925.896,2673.44Z" style="fill:rgb(0,40,112);fill-rule:nonzero;"/>
                    <path d="M953.515,2673.44C951.413,2673.44 949.562,2673.1 947.961,2672.41C946.36,2671.73 945.117,2670.72 944.233,2669.39C943.349,2668.05 942.857,2666.42 942.757,2664.48L945.559,2664.48C945.759,2666.65 946.552,2668.24 947.936,2669.26C949.32,2670.28 951.197,2670.79 953.565,2670.79C955.866,2670.79 957.643,2670.3 958.894,2669.34C960.144,2668.37 960.77,2667.12 960.77,2665.58C960.77,2664.28 960.47,2663.3 959.869,2662.63C959.269,2661.97 958.477,2661.47 957.493,2661.13C956.509,2660.8 955.433,2660.53 954.265,2660.33L951.614,2659.83C950.479,2659.6 949.429,2659.31 948.461,2658.98C947.494,2658.65 946.652,2658.2 945.935,2657.65C945.217,2657.1 944.659,2656.39 944.258,2655.5C943.858,2654.62 943.658,2653.54 943.658,2652.28C943.658,2650.81 944.033,2649.51 944.784,2648.37C945.534,2647.24 946.61,2646.35 948.011,2645.7C949.412,2645.05 951.063,2644.72 952.964,2644.72C954.932,2644.72 956.642,2645.09 958.093,2645.82C959.544,2646.55 960.678,2647.55 961.495,2648.8C962.313,2650.05 962.755,2651.47 962.821,2653.08L960.019,2653.08C959.953,2652.04 959.644,2651.1 959.094,2650.25C958.543,2649.4 957.768,2648.71 956.767,2648.17C955.766,2647.64 954.499,2647.37 952.964,2647.37C950.963,2647.37 949.387,2647.78 948.236,2648.6C947.085,2649.41 946.51,2650.62 946.51,2652.22C946.51,2653.33 946.76,2654.2 947.261,2654.85C947.761,2655.5 948.445,2655.99 949.312,2656.33C950.179,2656.66 951.113,2656.93 952.114,2657.13L955.016,2657.63C956.217,2657.86 957.334,2658.14 958.368,2658.45C959.402,2658.77 960.311,2659.2 961.095,2659.76C961.879,2660.3 962.496,2661.03 962.946,2661.93C963.397,2662.83 963.622,2663.98 963.622,2665.38C963.622,2666.99 963.222,2668.39 962.421,2669.61C961.62,2670.83 960.461,2671.77 958.944,2672.44C957.426,2673.11 955.616,2673.44 953.515,2673.44Z" style="fill:rgb(0,40,112);fill-rule:nonzero;"/>
                    <path d="M973.228,2645.22L973.228,2672.94L970.527,2672.94L970.527,2647.82L965.623,2647.82L965.623,2645.22L973.228,2645.22ZM970.527,2635.41L973.228,2635.41L973.228,2642.82L970.527,2642.82L970.527,2635.41Z" style="fill:rgb(0,40,112);fill-rule:nonzero;"/>
                    <path d="M985.237,2672.94L982.535,2672.94L982.535,2645.22L985.237,2645.22L985.237,2649.57C985.504,2649.11 985.787,2648.66 986.087,2648.22C986.921,2647.12 987.947,2646.26 989.165,2645.64C990.382,2645.03 991.758,2644.72 993.292,2644.72C995.16,2644.72 996.778,2645.09 998.146,2645.82C999.513,2646.55 1000.58,2647.64 1001.35,2649.07C1002.12,2650.51 1002.5,2652.28 1002.5,2654.38L1002.5,2672.94L999.747,2672.94L999.747,2654.83C999.747,2652.36 999.088,2650.51 997.77,2649.3C996.453,2648.08 994.793,2647.47 992.792,2647.47C991.391,2647.47 990.124,2647.8 988.989,2648.45C987.855,2649.1 986.946,2650.04 986.263,2651.27C985.579,2652.51 985.237,2653.98 985.237,2655.68L985.237,2672.94Z" style="fill:rgb(0,40,112);fill-rule:nonzero;"/>
                    <path d="M1022.46,2673.44C1020.46,2673.44 1018.61,2673.08 1016.91,2672.36C1015.21,2671.65 1013.72,2670.64 1012.46,2669.34C1011.19,2668.04 1010.21,2666.49 1009.53,2664.71C1008.85,2662.92 1008.5,2661 1008.5,2658.93C1008.5,2656.93 1008.85,2655.07 1009.53,2653.35C1010.21,2651.63 1011.17,2650.12 1012.41,2648.82C1013.64,2647.52 1015.08,2646.51 1016.73,2645.8C1018.38,2645.08 1020.19,2644.72 1022.16,2644.72C1024.63,2644.72 1026.84,2645.27 1028.79,2646.37C1030.74,2647.47 1032.27,2648.97 1033.37,2650.87C1034.47,2652.78 1035.02,2654.94 1035.02,2657.38C1035.02,2657.74 1035.01,2658.12 1034.97,2658.5C1034.94,2658.89 1034.89,2659.26 1034.82,2659.63L1011.4,2659.63C1011.5,2661.6 1011.97,2663.37 1012.81,2664.93C1013.74,2666.74 1015.04,2668.15 1016.71,2669.19C1018.38,2670.22 1020.29,2670.74 1022.46,2670.74C1024.9,2670.74 1026.92,2670.24 1028.52,2669.24C1030.12,2668.24 1031.34,2666.68 1032.17,2664.58L1035.07,2664.58C1034.5,2666.39 1033.64,2667.95 1032.47,2669.29C1031.3,2670.62 1029.88,2671.65 1028.19,2672.36C1026.51,2673.08 1024.6,2673.44 1022.46,2673.44ZM1032.22,2657.08L1032.22,2657.03C1032.22,2655.26 1031.79,2653.65 1030.94,2652.2C1030.09,2650.75 1028.92,2649.59 1027.42,2648.72C1025.91,2647.86 1024.16,2647.42 1022.16,2647.42C1020.19,2647.42 1018.4,2647.9 1016.78,2648.85C1015.17,2649.8 1013.86,2651.12 1012.86,2652.83C1012.12,2654.09 1011.67,2655.51 1011.5,2657.08L1032.22,2657.08Z" style="fill:rgb(0,40,112);fill-rule:nonzero;"/>
                    <path d="M1049.08,2673.44C1046.98,2673.44 1045.13,2673.1 1043.53,2672.41C1041.93,2671.73 1040.68,2670.72 1039.8,2669.39C1038.92,2668.05 1038.42,2666.42 1038.32,2664.48L1041.13,2664.48C1041.33,2666.65 1042.12,2668.24 1043.5,2669.26C1044.89,2670.28 1046.76,2670.79 1049.13,2670.79C1051.43,2670.79 1053.21,2670.3 1054.46,2669.34C1055.71,2668.37 1056.34,2667.12 1056.34,2665.58C1056.34,2664.28 1056.04,2663.3 1055.43,2662.63C1054.84,2661.97 1054.04,2661.47 1053.06,2661.13C1052.08,2660.8 1051,2660.53 1049.83,2660.33L1047.18,2659.83C1046.05,2659.6 1045,2659.31 1044.03,2658.98C1043.06,2658.65 1042.22,2658.2 1041.5,2657.65C1040.78,2657.1 1040.22,2656.39 1039.83,2655.5C1039.42,2654.62 1039.22,2653.54 1039.22,2652.28C1039.22,2650.81 1039.6,2649.51 1040.35,2648.37C1041.1,2647.24 1042.18,2646.35 1043.58,2645.7C1044.98,2645.05 1046.63,2644.72 1048.53,2644.72C1050.5,2644.72 1052.21,2645.09 1053.66,2645.82C1055.11,2646.55 1056.24,2647.55 1057.06,2648.8C1057.88,2650.05 1058.32,2651.47 1058.39,2653.08L1055.59,2653.08C1055.52,2652.04 1055.21,2651.1 1054.66,2650.25C1054.11,2649.4 1053.33,2648.71 1052.33,2648.17C1051.33,2647.64 1050.07,2647.37 1048.53,2647.37C1046.53,2647.37 1044.95,2647.78 1043.8,2648.6C1042.65,2649.41 1042.08,2650.62 1042.08,2652.22C1042.08,2653.33 1042.33,2654.2 1042.83,2654.85C1043.33,2655.5 1044.01,2655.99 1044.88,2656.33C1045.75,2656.66 1046.68,2656.93 1047.68,2657.13L1050.58,2657.63C1051.78,2657.86 1052.9,2658.14 1053.93,2658.45C1054.97,2658.77 1055.88,2659.2 1056.66,2659.76C1057.44,2660.3 1058.06,2661.03 1058.51,2661.93C1058.96,2662.83 1059.19,2663.98 1059.19,2665.38C1059.19,2666.99 1058.79,2668.39 1057.99,2669.61C1057.19,2670.83 1056.03,2671.77 1054.51,2672.44C1052.99,2673.11 1051.18,2673.44 1049.08,2673.44Z" style="fill:rgb(0,40,112);fill-rule:nonzero;"/>
                    <path d="M1073.6,2673.44C1071.5,2673.44 1069.64,2673.1 1068.04,2672.41C1066.44,2671.73 1065.2,2670.72 1064.32,2669.39C1063.43,2668.05 1062.94,2666.42 1062.84,2664.48L1065.64,2664.48C1065.84,2666.65 1066.63,2668.24 1068.02,2669.26C1069.4,2670.28 1071.28,2670.79 1073.65,2670.79C1075.95,2670.79 1077.73,2670.3 1078.98,2669.34C1080.23,2668.37 1080.85,2667.12 1080.85,2665.58C1080.85,2664.28 1080.55,2663.3 1079.95,2662.63C1079.35,2661.97 1078.56,2661.47 1077.58,2661.13C1076.59,2660.8 1075.52,2660.53 1074.35,2660.33L1071.7,2659.83C1070.56,2659.6 1069.51,2659.31 1068.54,2658.98C1067.58,2658.65 1066.74,2658.2 1066.02,2657.65C1065.3,2657.1 1064.74,2656.39 1064.34,2655.5C1063.94,2654.62 1063.74,2653.54 1063.74,2652.28C1063.74,2650.81 1064.12,2649.51 1064.87,2648.37C1065.62,2647.24 1066.69,2646.35 1068.09,2645.7C1069.5,2645.05 1071.15,2644.72 1073.05,2644.72C1075.02,2644.72 1076.72,2645.09 1078.18,2645.82C1079.63,2646.55 1080.76,2647.55 1081.58,2648.8C1082.4,2650.05 1082.84,2651.47 1082.9,2653.08L1080.1,2653.08C1080.04,2652.04 1079.73,2651.1 1079.18,2650.25C1078.63,2649.4 1077.85,2648.71 1076.85,2648.17C1075.85,2647.64 1074.58,2647.37 1073.05,2647.37C1071.05,2647.37 1069.47,2647.78 1068.32,2648.6C1067.17,2649.41 1066.59,2650.62 1066.59,2652.22C1066.59,2653.33 1066.84,2654.2 1067.34,2654.85C1067.84,2655.5 1068.53,2655.99 1069.39,2656.33C1070.26,2656.66 1071.2,2656.93 1072.2,2657.13L1075.1,2657.63C1076.3,2657.86 1077.42,2658.14 1078.45,2658.45C1079.49,2658.77 1080.39,2659.2 1081.18,2659.76C1081.96,2660.3 1082.58,2661.03 1083.03,2661.93C1083.48,2662.83 1083.7,2663.98 1083.7,2665.38C1083.7,2666.99 1083.31,2668.39 1082.5,2669.61C1081.7,2670.83 1080.54,2671.77 1079.03,2672.44C1077.51,2673.11 1075.7,2673.44 1073.6,2673.44Z" style="fill:rgb(0,40,112);fill-rule:nonzero;"/>
                </g>
            </g>
        </g>
    </g>
</svg>
