<?xml version="1.0" encoding="utf-8"?>
<!-- Generator: Adobe Illustrator 16.0.3, SVG Export Plug-In . SVG Version: 6.00 Build 0)  -->
<!DOCTYPE svg PUBLIC "-//W3C//DTD SVG 1.1//EN" "http://www.w3.org/Graphics/SVG/1.1/DTD/svg11.dtd">
<svg version="1.1" id="Ebene_1" xmlns="http://www.w3.org/2000/svg" xmlns:xlink="http://www.w3.org/1999/xlink" x="0px" y="0px"
	 width="595.28px" height="297.638px" viewBox="0 0 595.28 297.638" enable-background="new 0 0 595.28 297.638"
	 xml:space="preserve">
<g>
	<path fill="#4A4A49" d="M144.272,132.75c0.468-2.735,0.926-5.436,1.39-8.132c0.081-0.481,0.384-0.702,0.856-0.704
		c0.483-0.005,0.968-0.007,1.447-0.007h30.542c1.446,0.002,2.876-0.043,4.292-0.449c1.921-0.549,3.285-1.675,3.97-3.563
		c0.448-1.227,0.831-2.478,0.943-3.785c0.16-1.911-0.595-3.123-2.383-3.879c-1.486-0.627-3.059-0.738-4.65-0.738
		c-5.088,0.004-10.182-0.004-15.273,0.004c-2.7,0.002-5.336-0.385-7.896-1.266c-1.637-0.563-3.144-1.374-4.472-2.491
		c-2.141-1.804-3.274-4.066-2.943-6.894c0.348-3,0.862-5.979,1.581-8.913c0.606-2.43,2.133-4.274,4.041-5.826
		c3.31-2.69,7.154-4.009,11.365-4.333c1.573-0.122,3.159-0.158,4.742-0.16c10.728-0.015,21.459-0.008,32.194-0.008h1.96
		c0.524,0.504,0.292,0.996,0.217,1.436c-0.348,2.031-0.837,4.041-1.069,6.082c-0.141,1.209-0.665,1.517-1.728,1.399
		c-0.336-0.039-0.684-0.007-1.032-0.007h-28.891c-1.999,0-3.989,0.134-5.914,0.718c-3.566,1.083-5.175,3.398-4.967,7.105
		c0.08,1.442,0.847,2.449,2.105,3.067c1.507,0.733,3.129,1.029,4.796,1.034c5.642,0.014,11.279,0.014,16.922,0.042
		c2.342,0.012,4.665,0.228,6.897,1.019c0.454,0.162,0.911,0.311,1.338,0.52c4.843,2.367,6.615,5.837,5.794,10.855
		c-0.322,1.965-0.76,3.909-1.083,5.873c-0.402,2.466-1.586,4.516-3.254,6.315c-3.492,3.769-7.777,5.796-12.945,5.844
		c-1.996,0.018-3.992,0.02-5.986,0.021c-10.181,0-20.362,0.002-30.544-0.006C145.89,132.923,145.128,133.038,144.272,132.75"/>
	<path fill="#4A4A49" d="M555.529,74.681h-22.842c-0.012-1.551,0.402-2.912,0.623-4.292c0.266-1.628,0.602-3.241,0.828-4.872
		c0.104-0.759,0.395-1.125,1.168-1.069c0.34,0.021,0.689,0.002,1.033,0.002c18.568,0,37.131,0,55.699,0.002
		c2.248,0,2.234,0,1.813,2.288c-0.391,2.092-0.742,4.19-1.107,6.287c-0.285,1.637-0.285,1.654-1.932,1.656
		c-6.602,0.008-13.205,0-19.803,0.006c-1.699,0-1.732,0.004-2.035,1.716c-1.559,8.785-3.104,17.572-4.646,26.36
		c-1.682,9.597-3.365,19.195-5.023,28.799c-0.162,0.948-0.455,1.416-1.563,1.395c-3.85-0.075-7.701-0.026-11.555-0.035
		c-0.262-0.002-0.531-0.085-0.891-0.148C548.695,113.468,552.086,94.216,555.529,74.681"/>
	<path fill="#4A4A49" d="M506.453,132.764c0.637-3.638,1.264-7.217,1.893-10.795c1.717-9.74,3.445-19.479,5.152-29.218
		c1.563-8.861,3.07-17.729,4.684-26.58c0.354-1.939-0.008-1.708,2.055-1.718c3.441-0.015,6.887-0.008,10.32,0.002
		c0.473,0.002,0.967-0.116,1.514,0.227c-0.016,2.071-0.588,4.126-0.945,6.195c-2.129,12.314-4.33,24.619-6.502,36.93
		c-1.396,7.912-2.781,15.827-4.166,23.74c-0.158,0.89-0.41,1.44-1.555,1.413c-3.846-0.085-7.699-0.03-11.555-0.039
		C507.082,132.918,506.816,132.832,506.453,132.764"/>
	<path fill="#4A4A49" d="M391.918,97.164c-0.498,3.114-1.053,6.223-1.6,9.329c-0.902,5.134-1.84,10.261-2.73,15.396
		c-0.443,2.556-1.027,3.1-3.678,3.115c-3.639,0.019-7.285,0.006-10.928,0.006c-3.367,0-6.729,0.013-10.102-0.006
		c-1.791-0.009-3.568-0.201-5.271-0.773c-2.869-0.962-4.063-2.843-3.557-5.852c1.152-6.899,2.412-13.781,3.58-20.679
		c0.896-5.247,4.609-6.869,8.236-7.253c1.568-0.166,3.158-0.102,4.742-0.105c4.326-0.013,8.654,0.004,12.986-0.008
		c1.881-0.005,3.691,0.267,5.379,1.125C391.5,92.739,392.361,94.367,391.918,97.164 M398.023,82.545
		c-2.158-0.72-4.389-1.152-6.664-1.214c-9.148-0.243-18.299-0.189-27.451-0.042c-1.383,0.021-2.738,0.255-4.09,0.49
		c-6.859,1.198-11.469,4.979-13.4,11.788c-0.236,0.858-0.4,1.738-0.563,2.617c-1.34,7.502-2.68,15.006-4.008,22.512
		c-0.195,1.082-0.395,2.168-0.494,3.257c-0.576,5.966,2.678,8.967,6.486,10.532c3.021,1.242,6.223,1.695,9.475,1.708
		c8.535,0.031,17.068,0.029,25.602,0.055c0.717,0,1.467-0.138,2.197,0.148c0,1.37-0.49,2.517-0.824,3.697
		c-0.838,2.957-2.869,4.542-5.795,5.204c-1.77,0.398-3.539,0.43-5.334,0.43c-11.422-0.002-22.846-0.004-34.268,0
		c-1.699,0-1.729,0.011-2.002,1.565c-0.453,2.494-0.859,5-1.322,7.735c0.506,0.047,0.84,0.105,1.172,0.105
		c12.596,0.004,25.191,0.045,37.783-0.021c4.061-0.025,8.09-0.525,11.928-2.018c5.471-2.135,8.932-6.036,10.121-11.811
		c0.668-3.227,1.158-6.492,1.725-9.738c1.729-9.809,3.482-19.61,5.182-29.422c0.477-2.771,1.172-5.516,1.172-8.358
		C404.643,86.824,402.711,84.103,398.023,82.545"/>
	<path fill="#DD0B2F" d="M48.682,234.675c-6.617,0-14.295-4.916-17.064-10.924l-11.905-25.818c-2.777-6.006-1.409-14.93,3.04-19.828
		l21.15-23.334c4.439-4.908,13.485-8.927,20.102-8.934l33.084-0.068c6.617-0.012,15.118,4.426,18.89,9.86l14.087,20.309
		c3.776,5.43,3.84,14.367,0.143,19.854l-19.448,28.908c-3.693,5.488-12.13,9.98-18.747,9.98L48.682,234.675z"/>
	<path fill="#4A4A49" d="M325.322,92.365c-1.418,8.179-2.836,16.36-4.273,24.538c-0.635,3.611-2.967,5.776-7.018,6.515
		c-1.553,0.282-3.121,0.448-4.715,0.439c-4.746-0.022-9.486-0.011-14.232-0.005c-1.38,0.003-2.738-0.114-4.095-0.385
		c-3.78-0.75-5.104-2.64-4.474-6.47c0.367-2.234,0.774-4.462,1.172-6.689c0.777-4.322,1.673-8.627,2.313-12.971
		c0.563-3.859,3.058-6.677,7.91-7.371c2.192-0.314,4.389-0.271,6.584-0.276c2.336-0.004,4.674-0.002,7.012-0.002
		c3.441,0,6.875-0.002,10.316,0.002c0.551,0,1.105-0.022,1.65,0.049C325.256,89.974,325.643,90.517,325.322,92.365 M331.701,64.648
		c-1.111-0.022-1.533,0.308-1.717,1.411c-0.688,4.199-1.484,8.381-2.23,12.569c-0.348,1.952-0.334,1.963-2.242,1.963
		c-8.939,0.001-17.883-0.013-26.819,0.008c-3.249,0.011-6.453,0.432-9.497,1.601c-5.764,2.211-9.773,6.038-10.926,12.338
		c-0.897,4.928-1.734,9.869-2.584,14.807c-0.636,3.654-1.372,7.29-1.855,10.965c-0.771,5.89,1.925,9.673,6.932,11.377
		c2.489,0.848,5.067,1.229,7.697,1.237c7.91,0.02,15.82,0.048,23.724-0.01c4.24-0.031,8.285-1.003,12.139-2.811
		c4.561-2.135,7.391-5.646,8.365-10.549c1.037-5.249,1.924-10.531,2.855-15.801c1.869-10.542,3.742-21.086,5.57-31.636
		c0.428-2.413,1.029-4.803,1.186-7.442C338.689,64.675,335.191,64.723,331.701,64.648"/>
	<path fill="#4A4A49" d="M458.498,96.434c-0.236,0.883-1.252,0.735-1.918,0.926c-10.566,3.001-21.135,5.955-31.703,8.926
		c-0.455,0.126-0.883,0.369-1.592,0.073c0.561-3.188,1.09-6.298,1.648-9.403c0.557-3.054,2.584-4.762,5.381-5.651
		c1.842-0.584,3.748-0.874,5.691-0.872c5.023,0.005,10.041,0.005,15.066,0.003c1.666-0.003,3.291,0.261,4.844,0.855
		c0.982,0.375,1.799,0.984,2.33,1.936C458.818,94.261,458.785,95.376,458.498,96.434 M465.773,83.305
		c-2.156-0.976-4.436-1.521-6.777-1.57c-9.563-0.207-19.123-0.286-28.682,0.048c-2.959,0.103-5.84,0.802-8.574,1.995
		c-4.85,2.116-7.709,5.762-8.613,10.994c-1.414,8.186-2.91,16.356-4.348,24.539c-0.27,1.562-0.303,3.155,0.012,4.723
		c0.721,3.643,3.068,5.908,6.387,7.229c3.17,1.259,6.52,1.644,9.898,1.656c6.813,0.029,13.623,0.01,20.434,0.01
		c5.848,0,11.691-0.024,17.539,0.023c1.004,0.008,1.508-0.261,1.666-1.277c0.387-2.501,0.83-4.996,1.297-7.769h-2.506h-33.639
		c-1.65,0.002-3.299-0.035-4.912-0.464c-2.205-0.586-3.48-2.149-3.555-4.454c-0.021-0.615,0.027-1.237,0.086-1.853
		c0.107-1.114,0.564-1.728,1.811-2.069c11.709-3.209,23.385-6.524,35.072-9.81c3.432-0.963,6.869-1.917,10.293-2.898
		c0.621-0.177,1.375-0.17,1.508-1.113c0.439-3.123,1.355-6.175,1.273-9.373C471.338,87.824,469.453,84.973,465.773,83.305"/>
	<path fill="#4A4A49" d="M256.516,96.94c-1.189,6.828-2.393,13.654-3.601,20.48c-0.67,3.764-3.901,6.294-8.418,6.444
		c-3.165,0.106-6.327,0.02-9.492,0.02v0.021c-3.027,0-6.051,0-9.076-0.002c-1.604-0.002-3.15-0.299-4.555-1.084
		c-2.116-1.179-2.856-2.744-2.439-5.152c1.168-6.762,2.372-13.52,3.523-20.285c0.528-3.108,2.422-5.006,5.253-6.052
		c1.683-0.622,3.45-0.896,5.253-0.895c5.295,0.002,10.59,0.002,15.891,0c1.596-0.002,3.158,0.223,4.623,0.862
		C255.957,92.374,256.981,94.285,256.516,96.94 M262.611,82.914c-1.888-0.679-3.834-1.066-5.834-1.181
		c-4.739-0.265-9.489-0.058-14.234-0.143c-4.812,0.085-9.632-0.138-14.445,0.156c-2.542,0.156-5.048,0.604-7.421,1.571
		c-5.379,2.199-9.031,5.861-9.978,11.831c-0.52,3.254-1.164,6.489-1.728,9.734c-0.927,5.275-1.934,10.537-2.715,15.833
		c-0.746,5.054,1.455,8.643,6.207,10.578c2.835,1.156,5.833,1.601,8.865,1.616c8.116,0.05,16.237,0.055,24.352-0.002
		c3.104-0.018,6.176-0.45,9.079-1.618c5.394-2.17,9.108-5.79,9.978-11.809c0.228-1.56,0.535-3.11,0.806-4.667
		c1.215-6.967,2.454-13.927,3.627-20.901C270.183,87.886,266.476,84.309,262.611,82.914"/>
	<path fill="#DD0B2F" d="M23.914,135.812c-4.963,0.009-10.859-3.605-13.101-8.031l-8.451-16.618
		c-2.257-4.421-1.094-10.762,2.584-14.094L24.2,79.582c3.672-3.338,10.735-6.074,15.698-6.076l31.245-0.041
		c4.963-0.006,11.441,3.251,14.396,7.238l10.196,13.767c2.957,3.985,2.717,10.313-0.537,14.06l-17.679,20.387
		c-3.251,3.749-9.972,6.824-14.936,6.835L23.914,135.812z"/>
	<path fill="#DD0B2F" d="M73.364,65.076c-4.963,0-11.364-3.316-14.229-7.371l-6.801-9.646c-2.866-4.051-2.151-10.034,1.589-13.294
		l12.016-10.513c3.738-3.266,10.855-5.938,15.818-5.938l26.507-0.015c4.964-0.002,11.8,2.956,15.197,6.576l7.924,8.465
		c3.401,3.617,3.444,9.572,0.097,13.239l-10.809,11.831c-3.347,3.663-10.144,6.662-15.107,6.662L73.364,65.076z"/>
	<path fill="#DD0B2F" d="M151.005,39.094c-3.31,0.011-7.883-1.941-10.163-4.337l-7.53-7.896c-2.288-2.39-2.259-6.273,0.064-8.629
		c0,0,4.327-4.4,6.345-6.449c2.019-2.052,6.377-3.735,9.686-3.741l19.035-0.035c3.309-0.01,8.082,1.729,10.61,3.865l8.377,7.06
		c2.53,2.136,2.971,6.043,0.982,8.686l-4.937,6.582c-1.979,2.65-6.303,4.829-9.613,4.839L151.005,39.094z"/>
	<path fill="#DD0B2F" d="M233.918,191.144c-5.376-6.283-16.542-11.414-24.812-11.402l-35.145,0.063
		c-8.271,0.012-18.759,5.674-23.305,12.584l-16.057,24.332c-4.567,6.898-4.723,18.279-0.346,25.301l21.739,34.855
		c4.375,7.018,14.722,12.756,22.992,12.754l47.83-0.043c8.271-0.004,17.7-6.229,20.953-13.834l13.622-31.764
		c3.257-7.604,1.523-18.963-3.855-25.25L233.918,191.144z"/>
</g>
</svg>
